<svg width="141" height="15" viewBox="0 0 141 15" fill="none" xmlns="http://www.w3.org/2000/svg">
<g id="Group 148542">
<g id="Group 147933">
<g id="Group 148546">
<g id="Group 148544">
<path id="Vector" d="M2.00005 4C3.1046 4 4 3.10459 4 2.00003C4 0.89546 3.1046 0 2.00005 0C0.895499 0 0 0.89546 0 2.00003C0 3.10459 0.895499 4 2.00005 4Z" fill="white"/>
<path id="Vector_2" d="M23.0001 4C24.1046 4 25 3.10459 25 2.00003C25 0.89546 24.1046 0 23.0001 0C21.8955 0 21 0.89546 21 2.00003C21 3.10459 21.8955 4 23.0001 4Z" fill="white"/>
<path id="Vector_3" d="M44.0001 4C45.1046 4 46 3.10459 46 2.00003C46 0.89546 45.1046 0 44.0001 0C42.8955 0 42 0.89546 42 2.00003C42 3.10459 42.8955 4 44.0001 4Z" fill="white"/>
<path id="Vector_4" d="M65.0001 4C66.1046 4 67 3.10459 67 2.00003C67 0.89546 66.1046 0 65.0001 0C63.8955 0 63 0.89546 63 2.00003C63 3.10459 63.8955 4 65.0001 4Z" fill="white"/>
<path id="Vector_5" d="M86.0001 4C87.1046 4 88 3.10459 88 2.00003C88 0.89546 87.1046 0 86.0001 0C84.8955 0 84 0.89546 84 2.00003C84 3.10459 84.8955 4 86.0001 4Z" fill="white"/>
<path id="Vector_6" d="M107 4C108.105 4 109 3.10459 109 2.00003C109 0.89546 108.105 0 107 0C105.895 0 105 0.89546 105 2.00003C105 3.10459 105.895 4 107 4Z" fill="white"/>
<path id="Vector_7" d="M128 4C129.105 4 130 3.10459 130 2.00003C130 0.89546 129.105 0 128 0C126.895 0 126 0.89546 126 2.00003C126 3.10459 126.895 4 128 4Z" fill="white"/>
</g>
<g id="Group 148545">
<path id="Vector_8" d="M13.0001 15C14.1046 15 15 14.1046 15 13C15 11.8955 14.1046 11 13.0001 11C11.8955 11 11 11.8955 11 13C11 14.1046 11.8955 15 13.0001 15Z" fill="white"/>
<path id="Vector_9" d="M34.0001 15C35.1046 15 36 14.1046 36 13C36 11.8955 35.1046 11 34.0001 11C32.8955 11 32 11.8955 32 13C32 14.1046 32.8955 15 34.0001 15Z" fill="white"/>
<path id="Vector_10" d="M55.0001 15C56.1046 15 57 14.1046 57 13C57 11.8955 56.1046 11 55.0001 11C53.8955 11 53 11.8955 53 13C53 14.1046 53.8955 15 55.0001 15Z" fill="white"/>
<path id="Vector_11" d="M76.0001 15C77.1046 15 78 14.1046 78 13C78 11.8955 77.1046 11 76.0001 11C74.8955 11 74 11.8955 74 13C74 14.1046 74.8955 15 76.0001 15Z" fill="white"/>
<path id="Vector_12" d="M97.0001 15C98.1046 15 99 14.1046 99 13C99 11.8955 98.1046 11 97.0001 11C95.8955 11 95 11.8955 95 13C95 14.1046 95.8955 15 97.0001 15Z" fill="white"/>
<path id="Vector_13" d="M118 15C119.105 15 120 14.1046 120 13C120 11.8955 119.105 11 118 11C116.895 11 116 11.8955 116 13C116 14.1046 116.895 15 118 15Z" fill="white"/>
<path id="Vector_14" d="M139 15C140.105 15 141 14.1046 141 13C141 11.8955 140.105 11 139 11C137.895 11 137 11.8955 137 13C137 14.1046 137.895 15 139 15Z" fill="white"/>
</g>
</g>
</g>
</g>
</svg>
