<svg width="79" height="50" viewBox="0 0 79 50" fill="none" xmlns="http://www.w3.org/2000/svg">
<g id="Frame 63" clip-path="url(#clip0_1477_502)">
<path id="Vector" fill-rule="evenodd" clip-rule="evenodd" d="M27.1066 39.8276C27.1066 22.7077 52.085 23.2321 52.085 39.4134C52.085 41.0594 51.3525 43.2433 50.8429 44.3896C49.643 47.0892 47.3099 49.4027 44.5998 50.6025C38.0321 53.5107 31.101 50.2824 28.4805 44.6725C27.9974 43.6387 27.1066 41.0893 27.1066 39.8276ZM21.2783 37.7571C21.2783 43.7265 21.9343 47.7517 26.5737 52.3665C33.6289 59.3843 45.3846 59.4385 52.4095 52.5734C57.2045 47.8874 57.9133 43.889 57.9133 37.7571C57.9133 24.5314 38.569 14.3858 27.2064 25.8476C24.092 28.9893 21.2783 32.7143 21.2783 37.7571ZM17.6198 14.2396C19.3128 15.34 20.4967 17.8804 22.9435 17.8804C24.3381 17.8804 28.4554 15.1977 30.3758 14.5066C36.7302 12.2202 37.098 14.4978 37.098 6.28551H42.0936C42.0936 16.7285 44.1453 11.3193 52.3339 15.9763C54.0671 16.9618 56.929 20.563 61.2437 14.1535L65.0892 17.7823C57.9769 22.7567 62.4434 24.2151 64.6355 30.2425C66.934 36.5632 64.6445 36.929 72.9004 36.929V41.8982C64.5566 41.8982 66.8987 41.9363 64.6355 48.1705C62.6597 53.6125 57.8242 56.1734 64.9905 60.9467L61.3425 64.7717C55.7442 56.7945 54.8492 62.9006 46.4856 64.9012C41.5178 66.0896 42.0936 66.1391 42.0936 72.5415H37.098C37.098 62.2311 34.9918 67.2797 26.9702 62.7388C23.6719 60.8718 21.7005 59.0992 17.9478 64.6737L14.1024 61.0448C20.9483 56.3269 16.9725 54.6409 14.7278 48.828C11.9522 41.6409 14.6531 41.8982 6.29124 41.8982V36.929C16.6565 36.929 11.5811 34.834 16.1462 26.8548C18.0232 23.5741 19.8052 21.6131 14.201 17.8804L17.6198 14.2396ZM30.8534 7.94185L23.3599 10.8406C18.4068 7.54147 19.481 3.71405 13.2643 9.90887C10.6296 12.5343 5.84678 16.197 7.08597 18.6968C7.56578 19.6647 10.3638 22.2346 11.2868 22.8495C10.6322 24.0803 10.129 25.0938 9.55632 26.5115C9.07908 27.6926 8.51754 29.5541 7.95642 30.7174C-1.09692 30.7174 0.0464983 30.0134 0.0464983 44.3828C0.0464983 48.5542 3.92166 47.6955 7.95642 47.6955C8.53643 48.898 8.63878 50.2328 9.33731 51.7053C9.99147 53.0837 10.626 54.3211 11.2868 55.5634C6.32244 58.8702 5.76175 61.1417 8.88742 64.1616C10.1233 65.3557 15.9063 71.7133 17.1151 71.7133C20.9395 71.7133 20.616 69.4 23.3599 67.5724C24.9993 68.4352 28.7111 70.2937 30.8534 70.471C30.8534 79.999 30.0055 78.3388 45.8404 78.3388C48.7257 78.3388 48.3382 73.4993 48.3382 70.471C50.7906 70.2679 53.9978 68.5376 55.8318 67.5724C58.5755 69.4 58.2522 71.7133 62.0764 71.7133C63.1714 71.7133 72.0679 62.864 72.0679 61.7749C72.0679 58.8797 70.1602 57.0659 67.9047 55.5634C68.8751 53.7392 70.6148 50.549 70.8188 48.1097C80.386 48.1097 79.1451 47.8359 79.1451 34.4443C79.1451 30.3428 75.389 30.7174 71.2352 30.7174C70.1698 28.5087 69.6622 25.8743 67.9047 23.2636C71.5159 17.8994 75.8402 19.7692 67.8006 11.7722C59.1583 3.17583 61.0829 7.34284 55.8318 10.8406C54.5127 10.5349 53.7041 9.99289 52.2674 9.41709C50.8982 8.86835 49.4758 8.4849 48.3382 7.94185C48.3382 -1.31507 48.1431 0.074021 34.6001 0.074021C30.4766 0.074021 30.8534 3.81002 30.8534 7.94185Z" fill="white"/>
</g>
<defs>
<clipPath id="clip0_1477_502">
<rect width="79" height="50" fill="white"/>
</clipPath>
</defs>
</svg>
