<svg width="269" height="71" viewBox="0 0 269 71" fill="none" xmlns="http://www.w3.org/2000/svg">
<path d="M17.3892 5.91779L4.76931 25.0899C5.04343 25.1951 5.31486 25.3084 5.57822 25.4325L14.1697 12.375L7.20137 26.3765C7.44324 26.5437 7.67704 26.7218 7.90278 26.9079C12.3584 17.9341 16.8329 8.97109 21.2912 0L17.3892 5.91779ZM4.76931 45.9101L21.2912 71C16.8329 62.0262 12.3531 53.0659 7.90278 44.0894C7.67704 44.2782 7.44324 44.4536 7.20137 44.6235L14.1697 58.6223L5.57822 45.5675C5.31486 45.6916 5.04343 45.8049 4.76931 45.9101ZM1.82665 46.5763L0.418465 69.6756L1.28113 69.7269C1.74873 61.975 2.21633 54.2176 2.70005 46.4657C2.41251 46.5143 2.12226 46.5493 1.82665 46.5763ZM268.418 35.6065V35.0698C182.877 34.5789 97.3355 34.0853 11.7968 33.6537C11.8424 33.9396 11.8801 34.2282 11.9043 34.5222L189.493 35.4987L11.9043 36.4778C11.8801 36.7691 11.8424 37.0577 11.7968 37.3436C97.3248 36.7718 182.888 36.2566 268.418 35.9302V35.6065ZM9.43458 42.552C18.3701 47.0348 27.3002 51.5204 36.2383 55.9951C27.9102 50.4631 19.5659 44.9526 11.2405 39.4178C11.1357 39.6956 11.0228 39.9653 10.8965 40.2296L23.8899 48.8393L9.96398 41.848C9.79737 42.0908 9.62001 42.3254 9.43458 42.552ZM0.439972 1.64803L1.82933 24.4237C2.12226 24.448 2.41251 24.483 2.70005 24.5316C2.21902 16.7797 1.7541 9.02504 1.28113 1.27311L0.418465 1.32166L0.439972 1.64803ZM29.9123 18.1687L9.43458 28.448C9.62001 28.6746 9.79737 28.9092 9.96398 29.1493L23.8899 22.158L10.8965 30.7677C11.0228 31.032 11.1357 31.3044 11.2405 31.5795C19.5632 26.0474 27.9048 20.5396 36.2303 15.0076L29.9123 18.1687Z" fill="#BDE14A"/>
</svg>
