<svg width="277" height="41" viewBox="0 0 277 41" fill="none" xmlns="http://www.w3.org/2000/svg">
<path fill-rule="evenodd" clip-rule="evenodd" d="M156.134 7.62085L158.66 13.839C158.124 13.9104 157.609 14.0472 157.123 14.2402L156.134 7.62085ZM156.134 32.466L158.66 26.2494C158.124 26.178 157.609 26.0397 157.123 25.8467L156.134 32.466ZM146.842 23.3713L153.606 22.4049C153.407 21.9292 153.267 21.4247 153.194 20.9005L146.842 23.3713ZM150.244 29.1382L155.607 24.9897C155.186 24.6691 154.807 24.2983 154.481 23.888L150.244 29.1382ZM146.842 16.7156L153.606 17.682C153.408 18.1576 153.267 18.6621 153.194 19.1879L146.842 16.7156ZM150.244 10.9503L155.607 15.0987C155.188 15.4178 154.809 15.7886 154.481 16.1989L150.244 10.9503Z" fill="#BDE14A"/>
<path d="M149.991 3.37791L157.282 14.1791C157.124 14.2384 156.967 14.3022 156.815 14.3721L151.851 7.01579L155.877 14.904C155.737 14.9982 155.602 15.0985 155.472 15.2033C152.897 10.1477 150.312 5.09808 147.736 0.0439453L149.991 3.37791ZM157.282 25.9088L147.736 40.0439C150.312 34.9883 152.901 29.9402 155.472 24.8831C155.602 24.9894 155.737 25.0882 155.877 25.1839L151.851 33.0706L156.815 25.7158C156.967 25.7857 157.124 25.8495 157.282 25.9088ZM158.983 26.2841L159.796 39.2978L159.298 39.3267C159.028 34.9594 158.758 30.5891 158.478 26.2218C158.644 26.2492 158.812 26.2689 158.983 26.2841ZM4.9458 20.104V19.8016C54.3717 19.525 103.798 19.2469 153.222 19.0038C153.196 19.1649 153.174 19.3275 153.16 19.4931L50.5488 20.0432L153.16 20.5948C153.174 20.7589 153.196 20.9215 153.222 21.0826C103.804 20.7604 54.3655 20.4702 4.9458 20.2863V20.104ZM154.587 24.0169C149.424 26.5424 144.264 29.0695 139.1 31.5905C143.912 28.4738 148.733 25.3693 153.543 22.2511C153.604 22.4077 153.669 22.5596 153.742 22.7085L146.235 27.559L154.281 23.6203C154.377 23.757 154.48 23.8893 154.587 24.0169ZM159.784 0.972411L158.981 13.8038C158.812 13.8175 158.644 13.8372 158.478 13.8646C158.756 9.49728 159.025 5.12847 159.298 0.761189L159.796 0.788541L159.784 0.972411ZM142.755 10.2799L154.587 16.071C154.48 16.1986 154.377 16.3308 154.281 16.4661L146.235 12.5273L153.742 17.3778C153.669 17.5268 153.604 17.6802 153.543 17.8352C148.735 14.7186 143.915 11.6156 139.104 8.49891L142.755 10.2799Z" fill="#BDE14A"/>
<path fill-rule="evenodd" clip-rule="evenodd" d="M179.225 20.0432C179.225 9.40614 170.416 0.780981 159.547 0.774902L159.797 0.788579L159.785 0.972448L159.312 8.52022C159.387 8.5187 159.462 8.51718 159.536 8.51718C166.041 8.51718 171.314 13.6777 171.314 20.0432C171.314 26.4088 166.041 31.5693 159.536 31.5693C159.462 31.5693 159.387 31.5693 159.312 31.5677L159.797 39.2979L159.547 39.3115C170.416 39.3055 179.225 30.6818 179.225 20.0432Z" fill="#BDE14A"/>
<path d="M23.2945 19.8475C23.2945 12.83 18.6875 8.55393 11.1131 8.55393H7.67064V31.0483H11.1845C18.7108 31.0483 23.2945 26.8193 23.2945 19.8475ZM277 31.0726V38.5551H253.92V1.09429H261.612V31.0726H277ZM236.343 26.9135L231.689 16.8964L227.01 26.9135H236.343ZM239.335 33.3262H224.02L221.573 38.5551H213.262L231.546 0.164307H231.784L250.091 38.5551H241.757L239.335 33.3262ZM204.972 26.6567C204.972 24.4944 203.452 22.335 199.795 22.335H193.739V31.2109H199.819C202.312 31.2109 204.972 29.5379 204.972 26.6567ZM193.739 8.41564V15.7355H196.851C198.679 15.7355 200.46 14.2007 200.46 12.0155C200.46 9.9018 198.775 8.41564 196.992 8.41564H193.739ZM212.475 27.1916C212.475 32.7229 208.416 38.5551 200.531 38.5551H186.07V1.09429H196.519C203.311 1.09429 207.632 5.97367 207.632 11.0172C207.632 14.9894 204.947 17.4556 204.022 17.4556C207.702 17.4556 212.475 21.1725 212.475 27.1916ZM139 31.0726V38.5551H115.92V1.09429H123.612V31.0726H139ZM110.928 20.6848C110.928 32.4433 102.641 39.2981 92.6672 39.2981C81.3879 39.2981 72.5077 30.5605 72.5077 19.8718C72.5077 9.1572 81.4361 0.326902 92.383 0.326902C97.3456 0.37249 102.641 2.60476 106.392 6.18338L102.119 12.4365C99.1267 9.57661 95.7075 7.94913 92.2883 7.94913C86.3521 7.94913 80.3429 12.8771 80.3429 19.8718C80.3429 26.3756 85.5198 31.723 93.001 31.723C98.4621 31.723 102.38 28.9802 102.641 24.4731H92.7386V17.524H110.738C110.856 18.6166 110.928 19.6606 110.928 20.6848ZM43.7428 8.50682V15.8282H56.9459V23.3319H43.7428V31.0711H59.1307V38.5551H36.0489V1.09429H59.1307V8.50682H43.7428ZM31.0599 19.8718C31.0599 31.4905 23.5072 38.5551 11.1364 38.5551H0V1.11709L11.1364 1.09429C23.5072 1.0715 31.0599 8.18163 31.0599 19.8718Z" fill="white"/>
</svg>
