<svg width="77" height="68" viewBox="0 0 77 68" fill="none" xmlns="http://www.w3.org/2000/svg">
<path fill-rule="evenodd" clip-rule="evenodd" d="M37.234 27.4523C37.647 27.3665 38.0708 27.3213 38.5004 27.3213C38.93 27.3213 39.3538 27.3665 39.7668 27.4523C40.1912 27.5405 40.6035 27.6715 40.9984 27.8403C41.4034 28.0133 41.7908 28.2263 42.1551 28.4736C42.524 28.7242 42.8692 29.0097 43.1847 29.3245C43.5003 29.6393 43.7865 29.9837 44.0376 30.3518C44.2857 30.7154 44.4993 31.1022 44.6729 31.5063C44.8422 31.9005 44.9736 32.3121 45.062 32.7355C45.1481 33.1476 45.1935 33.5703 45.1935 33.9987C45.1935 34.13 45.189 34.2621 45.1804 34.3949C45.1718 34.5266 45.1588 34.6588 45.1414 34.7911C45.1034 35.0827 45.0447 35.3698 44.9671 35.6506C44.8879 35.9368 44.789 36.2166 44.6723 36.4879C44.4986 36.8919 44.2848 37.2785 44.0365 37.6421C43.7851 38.0104 43.4985 38.355 43.1826 38.67C42.8668 38.9852 42.5214 39.2711 42.1523 39.5219C41.7879 39.7696 41.4003 39.983 40.9954 40.1563C40.6005 40.3253 40.1884 40.4566 39.7645 40.545C39.3521 40.6309 38.929 40.6762 38.5004 40.6762C38.0717 40.6762 37.6487 40.6309 37.2362 40.545C36.8123 40.4566 36.4002 40.3252 36.0054 40.1563C35.6005 39.983 35.213 39.7696 34.8485 39.5219C34.4794 39.2711 34.134 38.9852 33.8182 38.67C33.5024 38.355 33.2157 38.0103 32.9643 37.6421C32.716 37.2785 32.5022 36.8919 32.3285 36.4879C32.1591 36.094 32.0274 35.6828 31.9389 35.2599C31.8528 34.8485 31.8073 34.4264 31.8073 33.9987C31.8073 33.8677 31.8118 33.7356 31.8204 33.6029C31.8289 33.4715 31.8421 33.3393 31.8592 33.2067C31.954 32.4784 32.1767 31.7787 32.5028 31.132C32.8393 30.4645 33.2858 29.8531 33.8154 29.3247C34.131 29.0099 34.4761 28.7243 34.845 28.4739C35.2094 28.2265 35.597 28.0135 36.002 27.8404C36.397 27.6716 36.8095 27.5405 37.234 27.4523ZM49.6048 4.25366H50.0244L50.0594 3.83569C50.0662 3.75329 50.0834 3.66396 50.1091 3.56983C50.1356 3.47293 50.1713 3.37154 50.2143 3.26759C50.2619 3.15259 50.3183 3.03481 50.3812 2.91662C50.4466 2.79321 50.5207 2.66704 50.6006 2.54107C50.6889 2.4017 50.7832 2.26488 50.8801 2.13406C50.981 1.99782 51.0845 1.8683 51.1868 1.74928C51.2901 1.62921 51.3921 1.51989 51.4887 1.42544C51.5858 1.33052 51.6781 1.25006 51.7616 1.18807C52.111 0.928573 52.472 0.715517 52.8393 0.546242C53.2215 0.370026 53.6107 0.240982 54.0008 0.155927C54.4043 0.0680018 54.8098 0.0270916 55.2105 0.0295963C55.6222 0.0321531 56.028 0.0808383 56.4206 0.171425C56.5781 0.207743 56.7338 0.250897 56.8868 0.300416C57.0404 0.350093 57.1914 0.406396 57.3393 0.468857C57.4884 0.53184 57.6339 0.600927 57.775 0.675494C57.9166 0.750374 58.0556 0.831829 58.1911 0.919389C58.3261 1.00653 58.4577 1.09999 58.5851 1.19913C58.7125 1.29833 58.8352 1.4028 58.9527 1.51217C59.0689 1.62039 59.1811 1.73456 59.2885 1.85421C59.3947 1.97246 59.4955 2.09519 59.5901 2.22204C59.8209 2.53147 60.0192 2.86888 60.1784 3.23054C60.3325 3.58073 60.4499 3.95388 60.5249 4.34654C60.5973 4.72553 60.6302 5.12347 60.6185 5.53732C60.6073 5.93509 60.5547 6.34717 60.4565 6.77082C60.3727 7.13223 60.2491 7.42946 60.1028 7.69788C59.9572 7.96489 59.7906 8.20111 59.6181 8.44381L59.6 8.46906C59.4904 8.62341 59.3787 8.78069 59.2704 8.94563C59.2134 9.03246 59.1572 9.12117 59.1028 9.21202C59.0478 9.30396 58.9925 9.40138 58.9373 9.50543L58.825 9.71697L58.9373 9.92872C59.2863 10.5866 59.9399 11.7265 60.7588 13.1292C61.5704 14.5194 62.5593 16.1929 63.5743 17.9104L63.5781 17.9168C64.9724 20.2765 66.4168 22.7208 67.5502 24.6797C68.6739 26.622 69.467 28.0464 69.548 28.3492L69.6385 28.6871H69.9883C70.2181 28.6871 70.3933 28.677 70.5397 28.6618C70.6851 28.6466 70.8065 28.6258 70.9252 28.6051L70.9357 28.6039L70.9515 28.6004C71.0445 28.5842 71.1369 28.5681 71.2509 28.5558C71.3642 28.5435 71.4951 28.5354 71.6615 28.5354C72.0018 28.5354 72.3303 28.5671 72.6456 28.6271C72.9718 28.6891 73.2833 28.7815 73.5783 28.9003C73.884 29.0233 74.1729 29.1751 74.4435 29.3511C74.7223 29.5324 74.9815 29.7396 75.2193 29.9676C75.4664 30.2049 75.6912 30.465 75.8916 30.743C76.0947 31.0251 76.2727 31.3255 76.4234 31.6388C76.5742 31.9524 76.6976 32.2784 76.7917 32.6113C76.8855 32.9431 76.9505 33.2828 76.985 33.6253C77.0049 33.8228 77.0051 34.5491 76.985 34.7461C76.9689 34.903 76.9459 35.0588 76.916 35.2128C76.8864 35.3646 76.8498 35.5159 76.8058 35.6662C76.7621 35.8157 76.711 35.9639 76.6526 36.1101C76.5947 36.2549 76.5298 36.3972 76.458 36.5363C76.3868 36.674 76.308 36.8098 76.2215 36.9432C76.1364 37.0743 76.0445 37.2022 75.9455 37.3263C75.8479 37.4487 75.7431 37.5681 75.6308 37.6839C75.5207 37.7976 75.4035 37.9078 75.2796 38.0137C73.4976 39.5365 72.233 39.4465 70.976 39.3572L70.9713 39.3568C70.6438 39.3336 70.3162 39.3104 69.9883 39.3104H69.6385L69.548 39.6483C69.5336 39.7018 69.4895 39.8029 69.4205 39.9438C69.3533 40.081 69.2615 40.2581 69.1497 40.4671C69.0242 40.7022 68.8737 40.9764 68.705 41.2794C68.521 41.6096 68.316 41.9724 68.0982 42.3545C67.8422 42.8035 67.5726 43.2716 67.3003 43.7413C66.9931 44.2711 66.6747 44.8159 66.3639 45.3455C65.9693 46.0178 65.6032 46.6374 65.2914 47.1629C64.8446 47.9161 64.4819 48.5223 64.3056 48.8149L64.3035 48.8182C63.6812 49.7443 63.0535 50.7782 62.4298 51.8543C61.8074 52.9282 61.1871 54.0473 60.5797 55.1432L60.5754 55.1511C59.9884 56.2101 59.4132 57.2477 58.862 58.198L58.8198 58.2706L58.9373 58.4921C58.9906 58.5926 59.041 58.6803 59.0893 58.7583C59.1375 58.8364 59.1849 58.9069 59.2319 58.9725C59.2764 59.0347 59.3212 59.093 59.3665 59.1496C59.4171 59.2127 59.4599 59.2643 59.5034 59.3165L59.5952 59.4274C59.6249 59.464 59.6563 59.5035 59.6901 59.5479C59.722 59.5898 59.755 59.6348 59.789 59.6835C59.8254 59.7361 59.8634 59.793 59.9028 59.855C60.0031 60.0127 60.0938 60.1819 60.1744 60.3602C60.2561 60.5406 60.3275 60.7304 60.3882 60.9269C60.4499 61.1267 60.5007 61.3338 60.5399 61.5453C60.5793 61.7578 60.6071 61.9738 60.6229 62.1903C60.6385 62.4059 60.6424 62.6226 60.6342 62.8376C60.626 63.0489 60.606 63.2582 60.5737 63.4624C60.5423 63.6615 60.4993 63.8559 60.4445 64.0431C60.3908 64.2263 60.3256 64.4031 60.2488 64.5708C60.1191 64.8542 59.9774 65.1204 59.8242 65.3687C59.6705 65.6173 59.5048 65.8496 59.3268 66.0646C59.1513 66.2768 58.9633 66.4727 58.7633 66.6514C58.5641 66.8294 58.3531 66.9904 58.1308 67.1334C57.9099 67.2755 57.6769 67.4007 57.4318 67.5083C57.1883 67.6152 56.9328 67.7049 56.6653 67.7769C56.3999 67.8483 56.1223 67.9025 55.8328 67.9386C55.5435 67.9748 55.2421 67.9931 54.9289 67.9931C54.6719 67.9931 54.403 67.9631 54.1291 67.9066C53.8491 67.8488 53.565 67.7633 53.284 67.6538C52.9963 67.5417 52.7113 67.4044 52.4364 67.2458C52.1644 67.0889 51.9018 66.9105 51.6561 66.7144C51.424 66.5292 51.2084 66.3293 51.0158 66.1182C50.8288 65.9132 50.6621 65.6963 50.5217 65.4705C50.3901 65.2596 50.2823 65.041 50.2034 64.8177C50.1273 64.6026 50.0779 64.383 50.0594 64.1618L50.0245 63.7438H26.9762L26.9414 64.1618C26.9293 64.3075 26.9038 64.4535 26.8662 64.5988C26.8282 64.7454 26.7775 64.8912 26.7151 65.0348C26.6507 65.1834 26.574 65.3295 26.4864 65.4721C26.3973 65.6172 26.2963 65.7597 26.185 65.8982C26.0545 66.0606 25.9094 66.2179 25.7517 66.3682C25.5932 66.5192 25.4226 66.6629 25.2418 66.7975C25.0606 66.9325 24.8682 67.0592 24.6667 67.1759C24.468 67.2911 24.2605 67.3963 24.0464 67.49C23.8234 67.5877 23.5919 67.6733 23.3543 67.7452C23.1208 67.8158 22.8828 67.8728 22.6426 67.9147C22.4089 67.9555 22.1711 67.9823 21.931 67.9937C21.6972 68.0049 21.4626 68.0013 21.2291 67.982C20.9839 67.9617 20.7387 67.9239 20.4954 67.8673C20.2607 67.8127 20.0272 67.7401 19.797 67.6484C19.5743 67.5598 19.3547 67.4532 19.1396 67.3274C18.931 67.2054 18.7265 67.0655 18.5279 66.9067C18.2681 66.6989 18.0276 66.4653 17.809 66.2113C17.5864 65.9526 17.3865 65.6728 17.2118 65.3776C17.0353 65.0794 16.8843 64.765 16.7613 64.44C16.6389 64.1166 16.5443 63.7829 16.48 63.4446C16.4177 63.1165 16.3839 62.7837 16.3811 62.4517C16.3783 62.1274 16.4049 61.804 16.4631 61.4867C16.5193 61.18 16.6051 60.8785 16.7223 60.5867C16.8356 60.3042 16.9784 60.0306 17.1522 59.7698C17.2249 59.6609 17.2886 59.5736 17.3468 59.4987C17.4024 59.4271 17.4556 59.3638 17.5068 59.303L17.5538 59.2472C17.6275 59.1594 17.6988 59.0724 17.7724 58.9693C17.8171 58.9068 17.8629 58.8383 17.911 58.7601C17.9592 58.6818 18.0096 58.5936 18.0635 58.4921L18.1757 58.2804L18.0635 58.0687C17.8818 57.7262 17.7277 57.4743 17.5338 57.1573L17.3743 56.8972C17.2043 56.6174 16.7376 55.8295 16.0928 54.7333C15.5047 53.7334 14.7763 52.4905 13.9966 51.1548C13.372 50.0849 12.7075 48.9431 12.0471 47.8037C11.4577 46.7867 10.8789 45.7845 10.3438 44.8527C9.90919 44.0958 9.49343 43.3683 9.11303 42.6978C8.76788 42.0894 8.46411 41.5494 8.21688 41.1036C7.98517 40.6856 7.79813 40.3427 7.66732 40.0942C7.54179 39.8558 7.467 39.7016 7.45272 39.6483L7.36224 39.3104H7.01249C6.78267 39.3104 6.60745 39.3205 6.46106 39.3357C6.3157 39.3508 6.19431 39.3717 6.07563 39.3924L6.06512 39.3936L6.04922 39.397C5.95638 39.4133 5.86391 39.4293 5.74984 39.4417C5.63665 39.454 5.50569 39.4621 5.33926 39.4621C5.00593 39.4621 4.68338 39.431 4.37317 39.3722C4.05245 39.3114 3.74553 39.2208 3.4541 39.1043C3.15173 38.9835 2.86532 38.8346 2.59658 38.662C2.31985 38.4841 2.06142 38.2808 1.82333 38.0565C1.57719 37.8248 1.35193 37.5695 1.14957 37.2961C0.944066 37.0185 0.763252 36.723 0.609167 36.4152C0.454559 36.1059 0.32647 35.7848 0.227198 35.4572C0.128084 35.13 0.0569521 34.7947 0.0157896 34.4565C-0.0050794 34.284 -0.0055511 33.2775 0.0161024 33.1066C0.03535 32.955 0.0609259 32.8055 0.0929354 32.6591C0.12505 32.5125 0.163703 32.3673 0.208945 32.2244C0.253978 32.0823 0.306335 31.9404 0.366065 31.7994C0.424644 31.6611 0.48955 31.5259 0.560682 31.3947C0.63171 31.2635 0.710008 31.1342 0.795472 31.0074C0.879157 30.8833 0.969588 30.7619 1.06682 30.6439C1.16264 30.5276 1.26526 30.4143 1.37468 30.3045C1.483 30.1958 1.59791 30.0904 1.71931 29.989C2.63357 29.2248 3.37768 28.8632 4.05082 28.7042C4.7248 28.5449 5.32216 28.5891 5.94744 28.6355L5.95303 28.6359C6.29588 28.6611 6.64652 28.6871 7.01249 28.6871H7.36224L7.45272 28.3492C7.55429 27.9697 7.81289 27.4538 8.13486 26.8937C8.45506 26.3366 8.83776 25.7355 9.19029 25.1817L9.19154 25.1798C9.35938 24.9162 9.52068 24.6628 9.65489 24.4463C9.79852 24.2148 9.92996 23.9963 10.0429 23.7946L10.3807 23.1923C10.4824 23.0118 10.5878 22.8258 10.7037 22.6231C10.8062 22.4438 10.9113 22.262 11.0219 22.0735C11.136 21.879 11.2505 21.6865 11.3666 21.4943C11.4234 21.4003 11.4783 21.3077 11.532 21.2159C11.5895 21.1174 11.6464 21.0188 11.7027 20.9204L11.8777 20.612L12.033 20.3361C12.1489 20.1293 12.2661 19.9204 12.3624 19.7518C12.4194 19.6519 12.4755 19.5546 12.5298 19.4615C12.5847 19.3676 12.6406 19.273 12.6977 19.1782C12.81 18.9919 12.9209 18.8054 13.0305 18.6191C13.1447 18.4248 13.2545 18.2365 13.3607 18.0528C13.4713 17.8616 13.5828 17.6673 13.6939 17.4732L13.9968 16.9423C14.2249 16.5423 14.4532 16.1416 14.6797 15.7505C14.907 15.3582 15.1383 14.965 15.3774 14.5709C15.4475 14.4554 15.5134 14.3451 15.576 14.2389C15.6359 14.1373 15.6918 14.041 15.7449 13.9481L15.8966 13.6802L16.1085 13.3025C16.1996 13.14 16.2906 12.9778 16.3821 12.8176C16.4862 12.6355 16.5938 12.4504 16.7086 12.2599L16.7106 12.2566C17.04 11.7661 17.3696 11.1729 17.6873 10.6008L17.6886 10.5987C17.7711 10.4498 17.8536 10.3015 17.913 10.1956C17.9863 10.0652 18.0609 9.93384 18.1389 9.79963L18.1809 9.7271L18.0635 9.50543C18.0102 9.40483 17.9597 9.31721 17.9115 9.23915C17.8632 9.16103 17.8158 9.09054 17.7689 9.02495C17.6784 8.89835 17.59 8.79222 17.4986 8.68253L17.4056 8.57003C17.3759 8.5335 17.3445 8.494 17.3106 8.44954C17.2787 8.40764 17.2458 8.36277 17.2118 8.31393C17.1753 8.26138 17.1374 8.20455 17.0979 8.14246C16.9977 7.98477 16.907 7.81554 16.8264 7.63729C16.7447 7.4569 16.6733 7.26702 16.6126 7.07055C16.5509 6.87075 16.5001 6.66365 16.4609 6.45215C16.4215 6.23962 16.3936 6.02364 16.3779 5.80714C16.3623 5.59158 16.3584 5.37482 16.3666 5.15989C16.3748 4.94856 16.3948 4.73931 16.4271 4.53507C16.4585 4.336 16.5015 4.14152 16.5563 3.95435C16.61 3.77119 16.6751 3.59435 16.752 3.42664C16.8138 3.29165 16.8749 3.16391 16.9361 3.04248C16.9977 2.92001 17.059 2.80501 17.1205 2.69663C17.1812 2.58971 17.243 2.4878 17.3068 2.38996C17.3713 2.29118 17.4373 2.19715 17.5054 2.10719C17.5727 2.01848 17.6436 1.93165 17.7189 1.84587C17.7937 1.76076 17.872 1.67774 17.9547 1.59576C18.038 1.51311 18.1274 1.43009 18.2232 1.34576C18.3168 1.26316 18.4182 1.17852 18.5279 1.09075C18.7627 0.903056 19.0061 0.741138 19.2559 0.604111C19.5129 0.463013 19.7774 0.347901 20.0466 0.257472C20.3243 0.164172 20.6065 0.0971708 20.8907 0.0550084C21.1816 0.0118025 21.4759 -0.00541736 21.7704 0.00147055C22.0769 0.00877591 22.3831 0.0422762 22.6854 0.100041C22.9923 0.15864 23.2969 0.242756 23.5956 0.350302C23.8974 0.458891 24.1927 0.591431 24.4778 0.745835C24.7632 0.900395 25.039 1.07713 25.3017 1.27396C25.3851 1.33647 25.4771 1.41657 25.5734 1.51055C25.6686 1.60322 25.769 1.7103 25.8705 1.82781C25.9691 1.94193 26.0686 2.06581 26.1653 2.19631C26.2575 2.32077 26.3473 2.45111 26.4313 2.58433C26.505 2.70127 26.5745 2.82066 26.6372 2.94021C26.6967 3.0537 26.7498 3.16652 26.7941 3.27636C26.8349 3.37717 26.8687 3.47606 26.8937 3.57108C26.9181 3.66333 26.9344 3.75204 26.9414 3.83569L26.9762 4.25366H27.396C32.3331 4.23404 37.2706 4.24072 42.206 4.24735C44.5607 4.25048 46.9149 4.25366 49.6048 4.25366ZM27.8268 6.53919L27.5746 6.53236C27.5102 6.5309 27.4506 6.53006 27.396 6.53006H26.9762L26.9414 6.94803C26.884 7.63693 26.4346 8.24087 26.0086 8.81335C25.8827 8.98263 25.7587 9.14924 25.649 9.31272L25.4793 9.56528L25.649 9.81784C25.7035 9.89914 25.7554 9.9796 25.8052 10.0596C25.8567 10.1421 25.9074 10.2258 25.9575 10.3106C26.0169 10.411 26.0685 10.4997 26.1162 10.5827L26.2789 10.8698C26.4004 11.0834 26.5247 11.3019 26.6534 11.5155C26.7996 11.7582 26.9652 12.0469 27.1273 12.3291L27.367 12.7445L27.4888 12.9526L27.6053 13.1475L27.6582 13.2333C27.666 13.2457 27.7523 13.3805 27.7523 13.3827C27.8064 13.467 27.8778 13.5966 27.9352 13.6674C28.2108 14.0983 28.5729 14.6637 28.8702 15.1938C29.0108 15.4444 29.1353 15.6833 29.225 15.8879C29.3175 16.0988 29.3734 16.2752 29.3734 16.3945C29.3734 16.4849 29.3664 16.574 29.3528 16.6605C29.3393 16.7466 29.3188 16.8289 29.292 16.9063C29.2659 16.9816 29.2336 17.0528 29.1956 17.1181C29.1575 17.1837 29.1134 17.2443 29.0639 17.2987C29.0188 17.3481 28.9683 17.3929 28.9128 17.4318C28.8586 17.4698 28.7995 17.5026 28.7358 17.5289C28.6734 17.5548 28.6052 17.575 28.532 17.5885C28.4612 17.6016 28.3866 17.6085 28.3087 17.6085C28.0993 17.6085 27.9016 17.531 27.7151 17.3995C27.5344 17.2722 27.3641 17.0936 27.2035 16.8866C27.0316 16.6647 26.8708 16.4089 26.7202 16.1451C26.5698 15.8819 26.4306 15.6125 26.3005 15.3606C26.2246 15.2139 26.1514 15.0723 26.0847 14.9478C26.0159 14.8195 25.9472 14.6965 25.8764 14.5795L23.5106 10.5644L23.1854 10.64C23.0826 10.6639 22.9581 10.6881 22.8185 10.7106C22.6885 10.7315 22.5471 10.7508 22.4003 10.7666C22.2657 10.7811 22.1244 10.7931 21.9809 10.8012C21.8463 10.8088 21.7117 10.8131 21.5807 10.8131C21.4705 10.8131 21.3612 10.8101 21.2555 10.8036C21.1566 10.7975 21.0627 10.7884 20.9765 10.7757C20.8987 10.7642 20.8264 10.7501 20.7616 10.733C20.699 10.7165 20.6428 10.6968 20.5947 10.6738L20.0998 10.4369L19.9584 10.9656C19.8695 11.2976 18.5785 13.5812 17.0554 16.2137C15.5297 18.8507 13.7807 21.8227 12.7668 23.5454L11.933 24.9631C11.8767 25.0617 11.8003 25.1991 11.711 25.3614L11.3986 25.932C11.0703 26.5335 10.6813 27.246 10.3014 27.8905C10.1119 28.212 9.92468 28.5168 9.74847 28.7829C9.57095 29.0509 9.40337 29.2815 9.25441 29.4524L9.04588 29.6916L10.8528 32.9364H11.1196C11.6359 32.9364 12.3557 32.9183 13.1158 32.8992L13.1986 32.897C13.9912 32.8773 14.8265 32.8568 15.607 32.8571C16.0076 32.8572 16.3944 32.8628 16.7541 32.8766C17.1168 32.8906 17.4528 32.913 17.7492 32.9464C17.8948 32.9628 18.0265 32.9908 18.1448 33.0283C18.2707 33.0683 18.3805 33.1189 18.4747 33.1776C18.5704 33.2372 18.6507 33.3056 18.7164 33.3799C18.7859 33.4585 18.8394 33.5446 18.8778 33.635L18.8841 33.6507C18.8974 33.6834 18.9088 33.7162 18.9182 33.749C18.929 33.7867 18.9378 33.8263 18.9444 33.8671C18.951 33.9083 18.9553 33.9502 18.9572 33.9923C18.9591 34.0353 18.9586 34.0784 18.9559 34.1211C18.9531 34.1633 18.948 34.2052 18.9407 34.2466C18.9333 34.2887 18.9235 34.3309 18.9115 34.3726C18.8997 34.4138 18.8855 34.4548 18.8691 34.4952C18.8524 34.5362 18.834 34.5757 18.8141 34.6132C18.7658 34.7038 18.7053 34.789 18.6336 34.8656C18.5645 34.9392 18.4854 35.0041 18.3977 35.0565C18.3138 35.1069 18.2209 35.1467 18.1201 35.1735C18.0243 35.199 17.9216 35.2128 17.8127 35.2128H13.4014C13.1565 35.2128 12.9543 35.2035 12.7742 35.1896C12.5952 35.1758 12.4387 35.1575 12.2831 35.1392L12.2795 35.1388C12.1136 35.1193 11.9482 35.0999 11.765 35.0856C11.6679 35.078 11.5681 35.0717 11.4645 35.0676C11.3615 35.0634 11.2477 35.061 11.1196 35.061H10.8528L9.04588 38.3057L9.25441 38.5451C9.45128 38.771 9.61682 39.0111 9.76803 39.261C9.91777 39.5085 10.0544 39.7674 10.1939 40.0316L10.2981 40.2279C10.3315 40.2912 10.3677 40.3583 10.4081 40.4325C10.4431 40.4967 10.4813 40.5657 10.5242 40.6418C10.5627 40.7101 10.6015 40.7773 10.6403 40.8427L13.3237 45.4551C13.4942 45.7369 13.9738 46.5366 14.5978 47.5859C14.9979 48.259 15.467 49.0509 15.9661 49.8988C16.3593 50.567 16.7625 51.2555 17.1515 51.9247C17.4938 52.5135 17.8312 53.0979 18.1497 53.6549C18.4137 54.117 18.6624 54.5558 18.8865 54.9566C19.109 55.3545 19.3063 55.7131 19.4691 56.0173C19.6102 56.2811 19.7241 56.5004 19.8044 56.6643C19.8882 56.8356 19.9404 56.9568 19.9546 57.0177L20.058 57.4606L20.502 57.3575C21.2024 57.1947 21.907 57.2522 22.61 57.3096L22.6113 57.3096C22.7681 57.3225 22.9249 57.3352 23.0799 57.3453C23.2416 57.3558 23.4082 57.3642 23.5842 57.3681L23.8643 57.3742L23.9959 57.1262C24.1306 56.8722 24.2643 56.6255 24.3973 56.3841C24.5237 56.1546 24.6577 55.9155 24.7967 55.6702C25.0497 55.2236 25.3345 54.7317 25.6216 54.236L25.6302 54.2203C25.7931 53.9394 25.9586 53.6537 26.1446 53.3299C26.3239 53.0174 26.5033 52.7024 26.6818 52.3838C26.7208 52.3142 26.7519 52.2581 26.7787 52.2086L26.8582 52.0616C26.9452 51.8999 27.0366 51.7303 27.1342 51.5628C27.2318 51.3951 27.3348 51.2316 27.4436 51.0842C27.5456 50.9463 27.6531 50.8218 27.7668 50.7212C27.8833 50.6182 28.0067 50.5403 28.1373 50.4988C28.157 50.4925 28.1778 50.4869 28.1992 50.4821C28.2217 50.4771 28.2443 50.4729 28.2666 50.4697C28.2894 50.4665 28.3131 50.464 28.3374 50.4623C28.363 50.4607 28.3881 50.4598 28.4126 50.4598C28.4698 50.4598 28.5273 50.4643 28.5844 50.4731C28.6413 50.4818 28.6984 50.4951 28.7545 50.5124C28.8119 50.5301 28.8676 50.5518 28.9207 50.5772C28.9733 50.6021 29.0251 50.6316 29.0752 50.665C29.1247 50.6981 29.172 50.7349 29.216 50.7752C29.2593 50.8147 29.2991 50.8573 29.3343 50.9021C29.3684 50.9457 29.3987 50.9914 29.4242 51.0388C29.4491 51.085 29.4701 51.1341 29.4865 51.1855C29.4928 51.2052 29.4984 51.2256 29.5032 51.2465C29.5081 51.2688 29.5124 51.291 29.5157 51.3127C29.5188 51.334 29.5214 51.3568 29.523 51.3805C29.5246 51.4045 29.5255 51.4281 29.5255 51.4512C29.5255 51.7392 29.2103 52.4031 28.8355 53.0931C28.4641 53.7768 28.0353 54.4869 27.8 54.8764C27.778 54.9203 27.7414 54.9729 27.7149 55.0173V55.0196L27.7039 55.038C27.6361 55.1513 27.5726 55.2594 27.5129 55.3629C27.4575 55.4588 27.396 55.567 27.3307 55.6832C27.2756 55.7814 27.2132 55.8939 27.1475 56.013L26.9383 56.3933C26.844 56.5653 26.7499 56.7366 26.6593 56.8996C26.568 57.0642 26.4756 57.2282 26.3816 57.3911C26.2868 57.5554 26.1921 57.7155 26.0979 57.8687C26.0019 58.0247 25.9033 58.1792 25.8011 58.3314L25.6315 58.5838L25.8011 58.8365L25.9215 59.0146C25.9307 59.023 25.938 59.0345 25.9441 59.0476C26.1344 59.3258 26.3729 59.6751 26.57 60.0339C26.6658 60.2083 26.7519 60.3847 26.817 60.5548C26.8833 60.7279 26.9286 60.8955 26.9414 61.0494L26.9762 61.4674H50.0245L50.0594 61.0494C50.0885 60.7007 50.2233 60.3657 50.4023 60.0492C50.58 59.7351 50.7982 59.4434 50.9996 59.1739L51.0011 59.1722C51.061 59.0918 51.1197 59.0133 51.1755 58.9364C51.2347 58.8548 51.2933 58.7719 51.3518 58.6847L51.5212 58.4321L51.3518 58.1796C51.2289 57.9965 51.0385 57.6972 50.8078 57.3237C50.5892 56.9701 50.3383 56.5565 50.0782 56.1188C49.8467 55.7293 49.6067 55.3192 49.3735 54.9125C49.1666 54.5517 48.9618 54.1873 48.769 53.8347C48.6101 53.5439 48.4628 53.2685 48.3341 53.02C48.214 52.788 48.1075 52.5742 48.0195 52.3864C47.9436 52.2242 47.8834 52.0876 47.843 51.9836C47.8018 51.8774 47.7795 51.7992 47.7795 51.7547C47.7795 51.6943 47.7872 51.6331 47.8015 51.5723C47.8162 51.5104 47.8379 51.4488 47.8657 51.3888C47.8953 51.325 47.932 51.2624 47.9746 51.2022C48.0182 51.1409 48.0666 51.0836 48.1186 51.0316L48.1195 51.0308C48.1715 50.9789 48.2289 50.9306 48.2904 50.8872C48.3508 50.8446 48.4135 50.8079 48.4775 50.7785C48.5376 50.7508 48.5993 50.7291 48.6614 50.7144C48.7224 50.7001 48.7837 50.6924 48.8442 50.6924C49.0594 50.6924 49.2576 50.7631 49.4412 50.8831C49.6202 51.0001 49.7849 51.1642 49.9376 51.3551C50.1024 51.5611 50.2534 51.7977 50.3937 52.0422C50.5183 52.2595 50.6372 52.4887 50.75 52.7079L50.7851 52.7763C50.8547 52.9117 50.9222 53.0431 50.994 53.1781C51.0599 53.3019 51.1232 53.4165 51.1832 53.5158C51.9653 54.8099 52.7225 56.1291 53.4899 57.433L53.8153 57.3575C53.9182 57.3336 54.0426 57.3094 54.1824 57.2869C54.3123 57.2659 54.4537 57.2467 54.6005 57.2309C54.7351 57.2164 54.8764 57.2044 55.0199 57.1963C55.1545 57.1887 55.2891 57.1844 55.4201 57.1844C55.5303 57.1844 55.6396 57.1874 55.7453 57.1939C55.8442 57.1999 55.9381 57.2091 56.0243 57.2218C56.1021 57.2332 56.1744 57.2474 56.2392 57.2644C56.3017 57.281 56.3579 57.3006 56.406 57.3236L56.9009 57.5605L57.0424 57.0319C57.057 56.9774 57.0997 56.8785 57.1657 56.7425C57.2332 56.6035 57.3278 56.4208 57.4439 56.2031C57.57 55.9666 57.7211 55.6911 57.8905 55.3871C58.075 55.0559 58.2806 54.6923 58.4991 54.3094C58.7544 53.862 59.0233 53.3958 59.295 52.9278C59.6017 52.3996 59.9194 51.8565 60.2302 51.3281C60.6268 50.6536 60.995 50.0316 61.3095 49.5022C61.7924 48.6894 62.1807 48.0416 62.3452 47.7684C64.0256 44.8822 65.8325 41.3971 67.6479 38.6728L67.6867 38.6124L67.7423 38.5501C67.7814 38.493 67.8526 38.4156 67.9156 38.3472L67.9544 38.305L66.1486 35.0622H60.7853V35.0628L60.3509 35.0644L60.3504 35.0648L60.2917 35.0647C58.9067 35.0737 57.667 35.0738 57.667 33.847C57.667 33.8206 57.6692 33.7932 57.6735 33.7653C57.6776 33.738 57.6841 33.7092 57.6924 33.6794C57.702 33.6448 57.7137 33.6108 57.7267 33.5776C57.74 33.5439 57.7559 33.5089 57.7736 33.4733C57.7945 33.4318 57.8161 33.3931 57.8378 33.3577C57.8613 33.3198 57.8866 33.2828 57.9126 33.2476C57.9385 33.2127 57.9644 33.1809 57.9896 33.153C58.0162 33.1238 58.0425 33.0976 58.0678 33.0755C58.588 32.6225 60.8481 32.6999 62.3054 32.7546L62.435 32.7594C62.6027 32.7657 62.7594 32.7717 62.9017 32.7761L63.1317 32.7825C63.1902 32.7839 63.2449 32.7847 63.2952 32.7847C63.4275 32.7847 63.5534 32.7871 63.6742 32.7912C63.7932 32.7952 63.8997 32.8009 63.9976 32.8074C64.2078 32.8216 64.3878 32.8398 64.5666 32.8578L64.5718 32.8583C64.7671 32.878 64.9618 32.8977 65.1667 32.9117C65.2772 32.9194 65.3898 32.9257 65.5054 32.9299C65.6194 32.934 65.7435 32.9364 65.8811 32.9364H66.1479L67.9556 29.6902L67.6508 29.3413L67.6048 29.2646C67.5871 29.2362 67.5635 29.1993 67.5312 29.1505C67.4343 28.9617 67.2222 28.6471 67.1068 28.4506L67.0612 28.3742L67.0598 28.3751C65.5551 25.7746 61.9279 20.2499 60.9613 17.8287L60.8329 17.617L60.8304 17.6107C60.7179 17.3299 60.6007 17.0972 60.4894 16.9142C60.3632 16.7065 60.2454 16.5637 60.1518 16.4881L60.1416 16.4799L60.1346 16.4683C59.5648 15.5254 58.8341 14.3058 58.2256 13.246C57.6145 12.182 57.1255 11.2764 57.0424 10.9656L56.9009 10.4369L56.406 10.6738C56.166 10.7887 55.825 10.8194 55.451 10.8099C55.0816 10.8006 54.6834 10.7532 54.319 10.7098L54.303 10.708C54.1393 10.6886 53.9818 10.67 53.8422 10.6566C53.6949 10.6426 53.5531 10.6324 53.4166 10.6294L53.1364 10.6231L53.0049 10.8713C52.834 11.1934 52.6589 11.5083 52.482 11.8192C52.3043 12.1315 52.1279 12.4343 51.9519 12.7364C51.9499 12.7408 51.9474 12.7453 51.944 12.7499C51.6359 13.279 51.3281 13.8075 51.0291 14.3582L50.9023 14.5903L50.7891 14.794L50.6677 15.0094L50.5563 15.204L50.4463 15.394L50.3193 15.6103L49.9733 16.194V16.1961L49.9625 16.2142C49.9084 16.3058 49.8462 16.4094 49.7781 16.5151C49.7098 16.6212 49.6359 16.7282 49.5596 16.825C49.4911 16.9119 49.4222 16.9899 49.3579 17.0474C49.2841 17.1132 49.2129 17.1533 49.1484 17.1533C49.0396 17.1533 48.9315 17.1495 48.826 17.1413C48.721 17.1329 48.6185 17.1198 48.5207 17.101C48.4272 17.083 48.3378 17.0598 48.2544 17.0305C48.17 17.0009 48.092 16.9651 48.022 16.9221C47.9631 16.886 47.9093 16.8433 47.8617 16.7934C47.8138 16.7432 47.7721 16.6855 47.7381 16.6199C47.7027 16.5516 47.6747 16.4733 47.6559 16.3843C47.6372 16.2967 47.6273 16.1992 47.6273 16.091C47.6273 16.0489 47.6486 15.9748 47.6878 15.8741C47.726 15.776 47.7831 15.6469 47.855 15.4934C47.9388 15.3147 48.0403 15.1111 48.1547 14.8902C48.2778 14.6526 48.419 14.3889 48.5716 14.1097C48.7546 13.7748 48.9522 13.4234 49.1538 13.071C49.3872 12.663 49.624 12.2573 49.8496 11.8759C50.1335 11.3958 50.4039 10.9471 50.63 10.577C50.9069 10.1237 51.1156 9.79143 51.1997 9.6661L51.3691 9.41354L51.1997 9.16093L51.0821 8.98717C51.072 8.97851 51.0635 8.96567 51.0566 8.94975C50.8663 8.67147 50.6279 8.32233 50.4308 7.96353C50.335 7.78914 50.2489 7.61282 50.1838 7.44271C50.1175 7.26957 50.0722 7.10197 50.0594 6.94803L50.0246 6.53189L27.8268 6.53919ZM35.597 30.652C35.2793 30.9308 34.9977 31.2635 34.7665 31.6497C34.6094 31.9123 34.4753 32.1998 34.369 32.512C34.2737 32.7914 34.2008 33.0902 34.1533 33.4083V33.5574L34.1333 33.5549C34.1202 33.6623 34.1099 33.7722 34.1024 33.8847C34.0936 34.0192 34.089 34.1584 34.089 34.3023C34.089 34.5526 34.1182 34.8014 34.1729 35.0451C34.2297 35.2983 34.3144 35.5475 34.4229 35.7885C34.5334 36.0337 34.669 36.2709 34.8255 36.4954C34.9836 36.7225 35.1631 36.9363 35.3596 37.1322C35.556 37.3281 35.7703 37.5073 35.998 37.6652C36.223 37.8213 36.4606 37.9565 36.7065 38.0667C36.948 38.1749 37.1978 38.2594 37.4516 38.3161C37.6959 38.3707 37.9452 38.3998 38.1962 38.3998C38.5229 38.3998 38.837 38.3747 39.1365 38.3268C39.4447 38.2775 39.7393 38.2039 40.0184 38.1086C40.3057 38.0105 40.5754 37.8897 40.8252 37.749C41.0794 37.606 41.3145 37.4415 41.5281 37.2588C41.7484 37.0705 41.9453 36.8629 42.1168 36.6395C42.2886 36.4154 42.4349 36.1756 42.553 35.9232C42.8328 35.3253 42.9273 34.5692 42.8715 33.8175C42.8127 33.0244 42.5865 32.2384 42.2342 31.6498C42.003 31.2635 41.7214 30.9308 41.4036 30.652C41.0698 30.3591 40.6963 30.1258 40.2998 29.9525C40.1583 29.8907 40.0146 29.8366 39.8696 29.7905C39.7233 29.744 39.574 29.7051 39.4227 29.6737C39.2702 29.6421 39.1166 29.6182 38.9629 29.6024C38.8099 29.5867 38.6554 29.5787 38.5004 29.5787C38.3453 29.5787 38.1908 29.5867 38.0379 29.6024C37.8842 29.6182 37.7305 29.6421 37.578 29.6737C37.4268 29.7051 37.2774 29.744 37.1311 29.7905C36.9862 29.8366 36.8424 29.8907 36.7009 29.9525C36.3043 30.1258 35.9309 30.3591 35.597 30.652ZM32.3825 19.1464C32.3981 19.0896 32.4134 19.0368 32.428 18.9896C33.3669 15.964 36.3235 16.0247 38.9494 16.0785C39.2099 16.0839 39.4675 16.0892 39.7173 16.0913C40.7479 16.091 41.5541 16.2227 42.1899 16.4443C42.8299 16.6676 43.2972 16.9822 43.6461 17.3459C43.9934 17.7078 44.227 18.1241 44.3993 18.5498C44.5705 18.9729 44.6804 19.4023 44.7812 19.7966C44.9346 20.3969 45.0718 20.933 45.3354 21.3236C45.4754 21.5303 45.6458 21.6935 45.864 21.7999C46.0838 21.907 46.3541 21.9578 46.693 21.9393C46.9283 21.9265 47.1701 21.8861 47.4197 21.8308C47.6711 21.775 47.9322 21.7036 48.2026 21.6296L48.274 21.61C48.5882 21.5242 48.9161 21.4361 49.2497 21.371C49.6113 21.3005 49.9831 21.2557 50.3587 21.2671C50.7272 21.2783 51.1022 21.3443 51.4788 21.4946C51.8549 21.6446 52.2324 21.8785 52.6061 22.2254C52.7784 22.3854 52.9618 22.5984 53.1505 22.8465C53.3389 23.094 53.5314 23.3744 53.7231 23.6706C53.9192 23.9737 54.1145 24.2932 54.3042 24.6117C54.4903 24.9243 54.6763 25.2452 54.8516 25.5479L54.9842 25.7764L55.1514 26.0623L55.2966 26.3087C55.3446 26.3894 55.3879 26.4616 55.4254 26.523C55.8911 27.2865 56.1347 27.9555 56.2197 28.5457C56.3053 29.1403 56.2304 29.6551 56.0598 30.1063C55.8898 30.5562 55.6231 30.9483 55.3243 31.2961C55.0285 31.6405 54.7006 31.9415 54.4046 32.2119L54.3869 32.2285C54.0703 32.5175 53.7842 32.7788 53.5778 33.0436C53.3787 33.2992 53.2556 33.5573 53.2556 33.847C53.2556 34.239 53.3964 34.5717 53.6202 34.8867C53.8488 35.2084 54.1654 35.5144 54.5079 35.8454L54.5103 35.8476C55.316 36.626 56.2979 37.5745 56.2979 39.1586C56.2979 39.67 56.0299 40.3512 55.6623 41.0625C55.2994 41.765 54.8369 42.5014 54.4424 43.1295L54.4327 43.1454C54.2612 43.4181 54.1016 43.672 53.9958 43.8477C53.4696 44.7208 52.9771 45.347 52.5093 45.7877C52.0373 46.2324 51.5894 46.4895 51.1569 46.6212C50.7303 46.7511 50.3114 46.7582 49.8954 46.7036C49.4829 46.6495 49.0764 46.5355 48.6678 46.4208L48.6668 46.4206C48.3258 46.3249 47.9832 46.2288 47.6313 46.1589C47.2811 46.0894 46.9217 46.0456 46.5455 46.0537C46.2261 46.0606 45.9698 46.1397 45.7612 46.2724C45.5523 46.4052 45.3891 46.5934 45.2566 46.8177C45.132 47.0282 45.0377 47.2682 44.9587 47.5219C44.8794 47.7771 44.815 48.0489 44.7509 48.319L44.7507 48.3198C44.722 48.4411 44.6932 48.5623 44.6635 48.6796C44.6342 48.7956 44.6042 48.9067 44.5728 49.008C44.1137 50.4875 43.2174 51.2213 42.0729 51.5821C40.9468 51.9371 39.5845 51.9267 38.1635 51.9137L37.2835 51.9062C36.2529 51.9065 35.4467 51.7749 34.8109 51.5531C34.1708 51.33 33.7036 51.0154 33.3547 50.6517C33.0074 50.2897 32.7737 49.8734 32.6014 49.4477C32.4302 49.0247 32.3204 48.5953 32.2196 48.2009C32.1423 47.8981 32.0689 47.6114 31.9827 47.3551C31.8968 47.0996 31.7969 46.8695 31.6653 46.6746C31.5256 46.4675 31.3553 46.3041 31.1371 46.1976C30.9175 46.0905 30.6472 46.0397 30.3078 46.0582C30.0198 46.0739 29.7439 46.1199 29.4723 46.1815C29.1987 46.2435 28.9286 46.3215 28.6547 46.4006L28.6478 46.4027C28.356 46.4869 28.0589 46.5727 27.7518 46.6373C27.4417 46.7026 27.1217 46.7466 26.7875 46.7466C25.681 46.7466 24.831 46.222 24.1144 45.444C23.4056 44.6744 22.8296 43.6583 22.2635 42.6594L22.1048 42.38L21.9213 42.0598C21.8639 41.9604 21.8052 41.8597 21.7443 41.7563C21.6884 41.6615 21.6319 41.5672 21.5754 41.4745C21.1097 40.711 20.8662 40.042 20.7811 39.4517C20.6956 38.8573 20.7704 38.3424 20.9409 37.8911C21.1113 37.4406 21.3785 37.0478 21.6779 36.6996C21.9745 36.3548 22.3029 36.0534 22.599 35.7829L22.6142 35.769C22.9305 35.4801 23.2166 35.2186 23.423 34.9539C23.6221 34.6983 23.7452 34.4402 23.7452 34.1505C23.7452 33.7585 23.6044 33.4258 23.3806 33.1108C23.152 32.7891 22.8354 32.4831 22.4929 32.1521L22.4905 32.1499C22.0899 31.7629 21.6457 31.3337 21.2994 30.8024C20.9504 30.2671 20.7029 29.6316 20.7029 28.8389C20.7029 28.7156 20.7306 28.5598 20.7812 28.3785C20.8335 28.1912 20.9112 27.9746 21.0087 27.7369C21.1168 27.4731 21.2486 27.1869 21.3968 26.8879C21.5548 26.5694 21.7326 26.2344 21.9217 25.8955C22.1422 25.5001 22.3767 25.1025 22.6124 24.7208C22.8596 24.3202 23.1084 23.9368 23.3439 23.5913C23.5807 23.244 23.803 22.9365 23.9953 22.6904C24.1839 22.4491 24.3455 22.2648 24.4661 22.1574C24.538 22.0932 24.6184 22.0287 24.706 21.965C24.791 21.9033 24.8822 21.8428 24.9785 21.785C25.0701 21.7296 25.1679 21.6762 25.2706 21.6257C25.3705 21.5768 25.4734 21.5314 25.5781 21.4905C25.6765 21.4521 25.7784 21.4171 25.8829 21.3864C25.9837 21.3569 26.0861 21.3314 26.1892 21.311C26.2872 21.2917 26.3879 21.2765 26.4907 21.2662C26.5902 21.2562 26.6894 21.2509 26.7875 21.2509C27.4183 21.2509 28.1133 21.4438 28.7532 21.6214L28.756 21.6223C29.0654 21.7081 29.3627 21.7907 29.6416 21.8501C29.7851 21.8806 29.9255 21.9055 30.0621 21.9219C30.1984 21.9384 30.3297 21.9465 30.4553 21.9437C30.7748 21.9369 31.031 21.8577 31.2396 21.7251C31.4485 21.5922 31.6117 21.4041 31.7442 21.1798C31.8689 20.9689 31.9632 20.729 32.042 20.4756C32.1213 20.2205 32.1858 19.9486 32.2499 19.6785L32.2509 19.6737C32.2796 19.5531 32.3082 19.4326 32.3371 19.3184C32.351 19.2638 32.3659 19.2071 32.3825 19.1464ZM39.5941 18.3682C38.2252 18.366 37.2666 18.3646 36.5853 18.3995C36.2306 18.4177 35.9461 18.4461 35.7137 18.4898C35.4854 18.5326 35.3084 18.59 35.1651 18.6663C35.0356 18.7354 34.9347 18.8116 34.8547 18.8968C34.7754 18.9817 34.7157 19.0767 34.6685 19.1836C34.6244 19.2834 34.5929 19.3898 34.5668 19.5066C34.5404 19.6249 34.5185 19.7576 34.4942 19.905C34.4742 20.0271 34.4518 20.1631 34.4201 20.3189C34.3886 20.4735 34.3488 20.6427 34.2948 20.8262C34.2401 21.0121 34.1708 21.2146 34.0808 21.4346C33.991 21.6539 33.8798 21.8927 33.7408 22.1525C32.3517 24.7485 29.9238 24.1742 28.2405 23.7761L28.2143 23.7698C28.0768 23.7374 27.9438 23.706 27.8297 23.6804C27.7058 23.6526 27.5835 23.6267 27.4607 23.6035C27.3375 23.5804 27.2188 23.5611 27.1047 23.5477C26.9934 23.5346 26.8875 23.5272 26.7875 23.5272C26.3325 23.5272 25.9749 23.7558 25.6658 24.1012C25.3487 24.4555 25.08 24.9347 24.8107 25.4195C24.7499 25.5297 24.688 25.6393 24.6263 25.749L24.5431 25.8936C24.5145 25.9424 24.4832 25.9952 24.4483 26.0528C24.4268 26.0884 24.3943 26.1403 24.3551 26.2027L24.233 26.3954L24.2294 26.4019C24.1123 26.5857 23.9754 26.8006 23.8463 27.0127C23.7103 27.2357 23.5706 27.4744 23.4427 27.7135C23.3122 27.9573 23.1967 28.1985 23.1142 28.4195C23.0336 28.6355 22.9846 28.8317 22.9846 28.9906C22.9846 29.3072 23.1188 29.5916 23.2989 29.8396C23.483 30.0932 23.7161 30.3107 23.9057 30.4868C24.2343 30.785 24.7319 31.2145 25.004 31.5267C25.1883 31.7382 25.3473 31.9532 25.481 32.1701C25.6178 32.3918 25.7291 32.6164 25.8153 32.8422C25.9021 33.0696 25.9634 33.299 25.9994 33.5284C26.0359 33.7602 26.0463 33.9909 26.0315 34.2186C26.0164 34.4503 25.9751 34.681 25.9083 34.9086C25.8416 35.136 25.7493 35.3602 25.6322 35.5793C25.5212 35.7871 25.3878 35.9908 25.2328 36.1884C25.0789 36.3845 24.9039 36.5747 24.7084 36.7573C24.6129 36.8526 24.4926 36.9512 24.388 37.0438C24.0471 37.345 23.6964 37.657 23.4309 38.0012C23.1655 38.3454 22.9846 38.7234 22.9846 39.1586C22.9846 39.1586 23.1915 39.6223 23.5118 40.2772C23.6752 40.6113 23.8665 40.988 24.0724 41.3657C24.2356 41.6653 24.4101 41.9728 24.5897 42.2707C24.7461 42.5301 24.9063 42.7818 25.0661 43.0136C25.2213 43.2389 25.3791 43.4494 25.537 43.6361C25.6821 43.8079 25.827 43.9593 25.9692 44.0833C26.1145 44.2097 26.2592 44.3095 26.4015 44.3761C26.5321 44.4372 26.6612 44.4702 26.7875 44.4702C26.879 44.4702 26.9765 44.4633 27.0799 44.451C27.1852 44.4384 27.2961 44.4202 27.4121 44.3981C27.6429 44.3542 27.8868 44.2963 28.1497 44.234L28.1503 44.234C28.995 44.0336 30.0585 43.7817 31.0742 43.9118C31.5742 43.976 32.0671 44.1341 32.5224 44.4395C32.9769 44.7443 33.3933 45.1953 33.7408 45.8451C34.0146 46.3569 34.1828 46.7915 34.2927 47.1598C34.4028 47.5283 34.4548 47.8307 34.4962 48.0781L34.4998 48.0995C34.5243 48.2463 34.5465 48.3786 34.5732 48.4967C34.5996 48.6134 34.6312 48.7197 34.6754 48.8191C34.7229 48.9261 34.7825 49.0209 34.8615 49.105C34.9412 49.1901 35.0418 49.2659 35.171 49.3348C35.313 49.4106 35.488 49.4674 35.7132 49.5098C35.9424 49.5531 36.2228 49.5813 36.5716 49.5992C36.9071 49.6164 37.3091 49.6246 37.7941 49.6282C38.2817 49.6318 38.8538 49.6308 39.5262 49.6297L40.8332 49.6295C41.4904 49.6145 41.9025 49.3098 42.1898 48.8605C42.4914 48.3889 42.6612 47.7533 42.8296 47.1225L42.8377 47.0923C42.868 46.9789 42.8986 46.8652 42.9313 46.748C42.9623 46.6371 42.9942 46.5286 43.0273 46.4247C43.0621 46.3156 43.0981 46.2122 43.1354 46.1176C43.1737 46.0207 43.2151 45.9292 43.26 45.8451C44.649 43.249 47.077 43.8232 48.7602 44.2214L48.7867 44.2276C48.9269 44.2608 49.0615 44.2926 49.1712 44.3172C49.295 44.3449 49.4174 44.3709 49.5401 44.3939C49.6636 44.4173 49.7822 44.4364 49.8958 44.4498C50.0075 44.4629 50.1134 44.4702 50.2133 44.4702C50.6702 44.4702 51.029 44.2395 51.3392 43.8912C51.6581 43.5332 51.9274 43.0508 52.1979 42.5639L52.3745 42.2485L52.4576 42.1041C52.4861 42.0554 52.5175 42.0026 52.5525 41.9447C52.5741 41.909 52.6063 41.8573 52.6457 41.7949L52.7677 41.6022L52.7714 41.5955C52.8885 41.4118 53.0252 41.1971 53.1545 40.9847C53.2905 40.7617 53.4302 40.5231 53.5581 40.284C53.6886 40.0401 53.804 39.7989 53.8866 39.578C53.9672 39.362 54.0162 39.1659 54.0162 39.0069C54.0162 38.668 53.8617 38.355 53.6223 38.0485C53.3772 37.7344 53.0415 37.4251 52.6899 37.1018L52.6828 37.0955C52.5488 36.9724 52.4118 36.8465 52.2758 36.7162C52.1407 36.5867 52.0093 36.4555 51.8888 36.3237C51.7719 36.1959 51.6638 36.0665 51.5708 35.9363C51.4771 35.8048 51.3988 35.6726 51.3423 35.5406C51.0857 34.9401 50.9747 34.4122 50.9688 33.9427C50.9629 33.4707 51.0631 33.0586 51.2284 32.6921C51.3959 32.3209 51.6321 31.9911 51.8939 31.69C52.1539 31.3911 52.4383 31.1216 52.7057 30.8683C53.0613 30.5313 53.3929 30.2172 53.6324 29.8897C53.8673 29.5684 54.0162 29.2309 54.0162 28.8389C54.0162 28.6248 53.8002 28.169 53.5283 27.6765C53.2523 27.1766 52.9183 26.6408 52.6902 26.2749C52.6094 26.1447 52.5275 26.0154 52.4494 25.8835L52.4064 25.8082L52.2986 25.6153C52.1923 25.4244 52.0687 25.2026 51.9284 24.9707C51.7911 24.7438 51.641 24.5132 51.4828 24.3068C51.3113 24.0829 51.1283 23.8856 50.9375 23.7453C50.7528 23.6095 50.5609 23.5272 50.3654 23.5272C50.1328 23.5272 49.8782 23.5584 49.605 23.6068C49.3256 23.6562 49.0323 23.7223 48.7236 23.7918L48.7201 23.7926C47.8295 23.9933 46.7945 24.2261 45.8196 24.0833C45.3399 24.013 44.8706 23.8498 44.4352 23.5435C44.0013 23.2383 43.6018 22.7912 43.26 22.1525C43.2151 22.0684 43.1737 21.9768 43.1354 21.8798C43.0981 21.7852 43.0621 21.6818 43.0273 21.5728C42.9942 21.4689 42.9623 21.3604 42.9313 21.2495C42.8986 21.1325 42.868 21.0186 42.8377 20.9051L42.8296 20.8749C42.6612 20.2442 42.4915 19.6086 42.1898 19.1369C41.9021 18.6871 41.4893 18.3822 40.8305 18.3679C40.6863 18.368 39.6242 18.3573 39.5941 18.3682ZM52.0997 62.1664C52.0598 62.4209 52.0387 62.6938 52.0387 62.985C52.0387 63.0722 52.0463 63.1605 52.0604 63.2488C52.0753 63.3422 52.0979 63.4378 52.1267 63.5339C52.1558 63.6307 52.1914 63.7277 52.2321 63.8232C52.2754 63.9249 52.3244 64.0251 52.3771 64.1217C52.4317 64.2215 52.4913 64.3193 52.5539 64.4127C52.6186 64.5091 52.6868 64.6012 52.756 64.6865C52.828 64.7752 52.9017 64.8571 52.9747 64.9299C53.0466 65.0016 53.118 65.0644 53.1864 65.1159C53.4434 65.3092 53.7064 65.4581 53.971 65.5669C54.2494 65.6812 54.5302 65.7517 54.8083 65.7832C55.1016 65.8163 55.3916 65.8059 55.6718 65.7579C55.965 65.7077 56.2479 65.6163 56.5134 65.4909C56.6206 65.4403 56.7251 65.384 56.8262 65.3225C56.9293 65.2599 57.0283 65.1925 57.1224 65.1211C57.2173 65.0488 57.3088 64.9715 57.396 64.8899C57.4836 64.8079 57.5669 64.7215 57.6452 64.6315C57.7247 64.5402 57.7991 64.4452 57.8676 64.3473C57.9355 64.2505 57.9985 64.1494 58.0562 64.0447C58.1129 63.9418 58.1643 63.8355 58.2096 63.7265C58.2545 63.6182 58.2935 63.508 58.3259 63.3963C58.4028 63.1307 58.4444 62.8551 58.4446 62.5758C58.4447 62.3093 58.4074 62.0387 58.3273 61.7697C58.2517 61.5158 58.1382 61.2635 57.9828 61.0179C57.8346 60.7836 57.6479 60.555 57.4194 60.3362C57.2542 60.178 57.079 60.0385 56.8967 59.918C56.71 59.7945 56.516 59.691 56.318 59.6078C56.1149 59.5225 55.9074 59.4581 55.699 59.4151C55.4902 59.372 55.2794 59.3503 55.07 59.3503C54.9731 59.3503 54.878 59.3548 54.7851 59.3638C54.6922 59.3728 54.5982 59.3866 54.5038 59.405C54.4127 59.4228 54.3215 59.4454 54.2307 59.4728C54.1399 59.5 54.0507 59.5316 53.9637 59.5675C53.8743 59.6043 53.7861 59.646 53.6995 59.6926C53.6146 59.7384 53.5316 59.7887 53.4513 59.8435C53.3718 59.8978 53.2942 59.9567 53.2194 60.02C53.1454 60.0827 53.0739 60.1497 53.0054 60.221C52.8508 60.3816 52.7102 60.5645 52.5873 60.7694C52.4682 60.9678 52.3654 61.1868 52.2823 61.4263C52.203 61.6545 52.1412 61.9013 52.0997 62.1664ZM18.701 61.7143C18.6593 61.8478 18.6267 61.9844 18.605 62.123C18.5843 62.2547 18.5733 62.3905 18.5733 62.5297C18.5733 62.8759 18.619 63.1969 18.7028 63.4915C18.7912 63.8028 18.9221 64.0852 19.0862 64.337C19.2597 64.6033 19.4709 64.8354 19.7086 65.0314C19.957 65.2362 20.2341 65.4012 20.5272 65.5245C20.6291 65.5674 20.7336 65.6055 20.8399 65.6385C20.9468 65.6715 21.0548 65.6994 21.163 65.7216C21.2711 65.7439 21.3812 65.761 21.4924 65.7728C21.6035 65.7846 21.7145 65.791 21.8245 65.7919C21.9387 65.7928 22.0526 65.7881 22.165 65.7777C22.2747 65.7676 22.3849 65.7515 22.4947 65.7297C22.6031 65.7081 22.7103 65.6808 22.8156 65.648C22.9206 65.6151 23.0238 65.5767 23.1248 65.5328C23.407 65.4101 23.6716 65.2444 23.9071 65.0346C24.1304 64.8356 24.328 64.5965 24.4903 64.3161C24.6417 64.0545 24.7621 63.7576 24.8433 63.4249C24.9202 63.1096 24.9621 62.7608 24.9621 62.378C24.9621 62.2722 24.9559 62.1676 24.9438 62.0644C24.9315 61.9588 24.913 61.8542 24.8889 61.7509C24.8646 61.6471 24.8344 61.5447 24.7986 61.4442C24.7623 61.3422 24.7203 61.2422 24.6733 61.1447C24.6117 61.0174 24.541 60.8943 24.4621 60.7766C24.3825 60.6578 24.2942 60.5439 24.1985 60.4363C24.1033 60.3293 24.0002 60.228 23.8902 60.1337C23.7811 60.0401 23.6654 59.9535 23.5442 59.8752C23.4177 59.7934 23.2846 59.72 23.1461 59.656C23.0106 59.5935 22.8698 59.54 22.7247 59.4969C22.582 59.4546 22.4351 59.4218 22.2851 59.4C22.1393 59.3787 21.9899 59.3677 21.8376 59.3677C21.7154 59.3677 21.5917 59.3748 21.4674 59.3895C21.3453 59.4039 21.2217 59.4256 21.0974 59.455C20.9757 59.4838 20.8544 59.5195 20.7341 59.5625C20.6155 59.6049 20.4953 59.6552 20.3741 59.7136C20.262 59.7676 20.1431 59.8383 20.0223 59.9238C19.9039 60.0076 19.784 60.1049 19.6676 60.2136C19.5581 60.3159 19.4501 60.4293 19.3474 60.5522C19.2505 60.6683 19.1583 60.7928 19.0741 60.9243C18.995 61.0478 18.922 61.1784 18.8575 61.315C18.7969 61.4432 18.7441 61.5767 18.701 61.7143ZM72.5035 30.9357C72.2017 30.8555 71.8703 30.8117 71.5094 30.8117C71.1701 30.8117 70.8582 30.8561 70.5739 30.9374C70.2736 31.0234 70.0041 31.1504 69.7656 31.3098C69.5125 31.4789 69.2944 31.6847 69.1118 31.9165C68.9199 32.1602 68.7673 32.4327 68.6542 32.722C68.6152 32.8217 68.5809 32.9239 68.5515 33.0275C68.5215 33.1333 68.4965 33.2403 68.4766 33.3476C68.4567 33.4555 68.4416 33.5645 68.4316 33.6739C68.4215 33.7839 68.4164 33.8945 68.4163 34.0052C68.4163 34.1159 68.4212 34.2267 68.4311 34.3366C68.441 34.4459 68.456 34.555 68.4759 34.6628C68.4956 34.7699 68.5205 34.8767 68.5504 34.9822C68.5797 35.0857 68.6139 35.1877 68.6529 35.2873C68.7656 35.5754 68.918 35.8467 69.1097 36.0891C69.2914 36.3193 69.5092 36.5236 69.7628 36.6919C70.0013 36.8502 70.2709 36.9761 70.5711 37.0611C70.8557 37.1418 71.1685 37.1857 71.5094 37.1857C71.8703 37.1857 72.2017 37.142 72.5034 37.0618C72.8216 36.9771 73.1076 36.8518 73.3611 36.6943C73.6314 36.5263 73.864 36.3221 74.0585 36.0921C74.2628 35.8506 74.4257 35.5799 74.5469 35.2921C74.5901 35.1893 74.6276 35.086 74.6591 34.9832C74.6902 34.8815 74.7166 34.7765 74.7383 34.6692L74.7398 34.661C74.7618 34.5509 74.7782 34.4406 74.789 34.3312C74.7998 34.2222 74.8052 34.1111 74.8052 33.9987C74.8052 33.8862 74.7998 33.7751 74.789 33.666C74.7782 33.5567 74.7618 33.4466 74.7398 33.3364C74.7179 33.2263 74.6909 33.1185 74.6589 33.014C74.6274 32.911 74.5901 32.808 74.5469 32.7054C74.4258 32.4176 74.263 32.1469 74.0586 31.9054C73.864 31.6753 73.6314 31.4712 73.3611 31.3032C73.1077 31.1457 72.8217 31.0203 72.5035 30.9357ZM24.9672 5.59096C24.975 5.4963 24.979 5.40164 24.979 5.30751C24.979 5.06701 24.9538 4.82687 24.9021 4.59247C24.8519 4.36486 24.7769 4.14314 24.676 3.93243C24.5788 3.72929 24.4567 3.53533 24.3091 3.3552C24.1679 3.1829 24.0032 3.02365 23.8144 2.88161C23.667 2.77072 23.5145 2.67424 23.3587 2.59179C23.2019 2.50883 23.0419 2.4399 22.8801 2.38464L22.8669 2.38046C22.6956 2.32275 22.5222 2.27975 22.3484 2.25121C22.172 2.2222 21.9943 2.20795 21.8171 2.20795C21.6925 2.20795 21.5685 2.2151 21.446 2.22908C21.3214 2.24328 21.1979 2.26457 21.0764 2.29243C20.9551 2.3203 20.8353 2.35515 20.7176 2.39653C20.6006 2.4377 20.4856 2.48571 20.3735 2.54014C20.2583 2.59592 20.1473 2.6578 20.0411 2.72543C19.9365 2.79212 19.8346 2.86569 19.7365 2.94584C19.6396 3.02511 19.5474 3.10985 19.4608 3.19965C19.3753 3.28852 19.2941 3.38338 19.2182 3.48383C19.1143 3.62128 19.0208 3.76869 18.9395 3.92513C18.8599 4.07828 18.7916 4.24014 18.7366 4.40989C18.6834 4.57395 18.6421 4.74635 18.6143 4.92638C18.5873 5.09915 18.5733 5.27985 18.5733 5.46776C18.5733 5.67215 18.5963 5.87216 18.6396 6.0657C18.6847 6.26722 18.7519 6.46311 18.8381 6.65096C18.9261 6.84283 19.034 7.02604 19.1584 7.19793C19.2854 7.37331 19.43 7.53731 19.5884 7.68707C19.7478 7.83772 19.9216 7.97444 20.1061 8.09424C20.2896 8.21353 20.4841 8.31648 20.6859 8.40034C20.8856 8.48336 21.0919 8.5477 21.301 8.59085C21.5041 8.63265 21.7115 8.65477 21.9198 8.65477C22.1548 8.65477 22.3794 8.62769 22.5921 8.57713C22.8148 8.52427 23.0244 8.44594 23.2199 8.34628C23.4235 8.24244 23.6117 8.11548 23.7831 7.97C23.9602 7.81961 24.1203 7.64836 24.2616 7.46144C24.3195 7.38479 24.3738 7.30626 24.4243 7.22642C24.4748 7.14642 24.5228 7.06304 24.5677 6.97684C24.6134 6.88933 24.6548 6.80161 24.6917 6.71452C24.7287 6.62691 24.7629 6.5358 24.794 6.44187C24.8246 6.34936 24.8514 6.25684 24.8739 6.16485C24.8967 6.07149 24.9161 5.97616 24.9319 5.87941C24.9472 5.7846 24.9591 5.68828 24.9672 5.59096ZM6.4269 30.9355C6.14342 30.8554 5.83159 30.8117 5.4913 30.8117C5.24961 30.8117 5.02084 30.8323 4.80535 30.8712C4.58149 30.9115 4.36998 30.9718 4.17138 31.0494C3.96505 31.1299 3.77335 31.2292 3.5972 31.3442C3.41445 31.4635 3.24833 31.5994 3.09953 31.7486C3.02505 31.8232 2.95476 31.9015 2.88891 31.9828C2.8218 32.0656 2.7593 32.1514 2.70171 32.2394C2.64392 32.3278 2.59036 32.4195 2.54146 32.5138C2.49182 32.6095 2.44721 32.707 2.40787 32.8057C2.36906 32.9031 2.33491 33.002 2.30567 33.1016C2.27644 33.2016 2.25191 33.3024 2.2324 33.4038C2.21242 33.5076 2.19741 33.6112 2.18758 33.7137C2.1778 33.8152 2.17282 33.9184 2.17282 34.0229C2.17282 34.2302 2.1927 34.4379 2.23276 34.6425C2.2723 34.8447 2.33136 35.0436 2.40997 35.2354C2.48664 35.4225 2.58252 35.6041 2.69779 35.7768C2.8091 35.9436 2.93854 36.1018 3.08609 36.2483C3.16203 36.3237 3.24248 36.3957 3.32695 36.4636C3.41042 36.5305 3.49819 36.5939 3.58987 36.6528C3.67994 36.7108 3.77398 36.7647 3.87147 36.8141C3.96855 36.8632 4.06913 36.9079 4.173 36.948C4.2739 36.9869 4.37808 37.0214 4.48525 37.0513C4.59158 37.0809 4.70043 37.1059 4.81126 37.1257C4.92209 37.1456 5.0349 37.1608 5.14913 37.1709C5.25923 37.1807 5.37336 37.1857 5.4913 37.1857C5.82813 37.1857 6.13761 37.141 6.41942 37.0592C6.71739 36.9726 6.98555 36.8444 7.22327 36.6835C7.47464 36.5134 7.69159 36.3063 7.87355 36.0728C8.06488 35.8273 8.21708 35.5533 8.32979 35.263C8.3685 35.1632 8.40276 35.0607 8.43226 34.9561C8.46217 34.8504 8.48707 34.7439 8.50679 34.6372C8.52677 34.5294 8.54183 34.4206 8.55187 34.3114C8.56202 34.2015 8.56731 34.091 8.56751 33.9806C8.56772 33.8703 8.56296 33.7599 8.55323 33.6503C8.54345 33.5412 8.5287 33.4324 8.50909 33.3247C8.48968 33.2183 8.46505 33.112 8.43524 33.0061C8.40595 32.902 8.3719 32.8001 8.3334 32.7011C8.22163 32.4141 8.07058 32.1439 7.88009 31.9023C7.69928 31.673 7.48301 31.4697 7.23127 31.3027C6.99413 31.1453 6.72592 31.0201 6.4269 30.9355ZM54.2628 8.52808C54.5568 8.61005 54.8803 8.65477 55.2331 8.65477C55.263 8.65477 55.2993 8.65154 55.3402 8.64569C55.3856 8.63922 55.4377 8.62936 55.4943 8.61705C55.5487 8.60515 55.6077 8.59069 55.669 8.57457C55.7361 8.55693 55.8065 8.53716 55.8771 8.51634C55.9498 8.49494 56.0232 8.4723 56.0936 8.44975C56.1666 8.42643 56.2383 8.40243 56.3047 8.37941C56.3712 8.3563 56.4337 8.33339 56.4885 8.31205C56.5377 8.2929 56.5779 8.27589 56.6054 8.26237C56.8053 8.16516 56.9872 8.05469 57.1517 7.933C57.3227 7.80641 57.4756 7.66756 57.6106 7.51915C57.7503 7.36527 57.8716 7.20012 57.9744 7.02672C58.0806 6.84758 58.1667 6.66072 58.2331 6.46937C58.2798 6.3348 58.3173 6.19641 58.3455 6.05558C58.374 5.91323 58.3926 5.7703 58.4015 5.62806C58.4104 5.48404 58.4097 5.33897 58.3996 5.19443C58.3893 5.04833 58.3695 4.90363 58.3404 4.76143C58.3114 4.61929 58.2729 4.47814 58.2251 4.33945C58.1779 4.20242 58.1218 4.06863 58.0573 3.93942C57.9923 3.8097 57.9194 3.68488 57.8387 3.56643C57.7592 3.4496 57.6708 3.33678 57.5739 3.2294C57.4368 3.07718 57.2841 2.93755 57.1169 2.81393C56.9551 2.69433 56.7787 2.58882 56.5882 2.50037C56.4052 2.41532 56.2101 2.34644 56.004 2.2964C55.8043 2.24803 55.593 2.21672 55.3709 2.20498C55.0215 2.18656 54.6984 2.21338 54.4021 2.27845C54.0896 2.34706 53.8073 2.45795 53.5561 2.60249C53.288 2.75674 53.0547 2.94924 52.8568 3.16986C52.6484 3.40217 52.4788 3.66568 52.3486 3.94861C52.2999 4.05433 52.2567 4.16318 52.2192 4.27396C52.1813 4.38599 52.1491 4.50016 52.1229 4.61543C52.0969 4.72992 52.0764 4.84759 52.0615 4.9675C52.0466 5.08809 52.0376 5.20805 52.0347 5.32656C52.0319 5.4461 52.0349 5.56669 52.0437 5.68734C52.0524 5.80594 52.0671 5.92413 52.0875 6.04076C52.1079 6.15681 52.1342 6.27218 52.1663 6.38578C52.1985 6.49954 52.2364 6.61152 52.2798 6.72057C52.3967 7.01467 52.5542 7.29144 52.7523 7.53846C52.94 7.7726 53.165 7.9807 53.4275 8.15211C53.6741 8.3133 53.9526 8.44161 54.2628 8.52808Z" fill="black"/>
</svg>
