<svg width="70" height="74" viewBox="0 0 70 74" fill="none" xmlns="http://www.w3.org/2000/svg">
<path fill-rule="evenodd" clip-rule="evenodd" d="M30.3887 53.3369C30.3887 47.0253 39.5975 47.2186 39.5975 53.1842C39.5975 53.791 39.3274 54.5961 39.1396 55.0187C38.6972 56.014 37.837 56.8669 36.8379 57.3092C34.4166 58.3814 31.8613 57.1912 30.8952 55.123C30.7171 54.7419 30.3887 53.802 30.3887 53.3369ZM28.24 52.5735C28.24 54.7743 28.4818 56.2582 30.1922 57.9595C32.7933 60.5468 37.1273 60.5668 39.7171 58.0358C41.4849 56.3082 41.7462 54.8341 41.7462 52.5735C41.7462 47.6976 34.6146 43.9573 30.4255 48.1828C29.2773 49.3411 28.24 50.7144 28.24 52.5735ZM18.4173 61.7335C19.3876 61.9583 19.9521 61.6254 19.9521 60.5121C19.9521 60.1222 18.2094 58.397 17.8417 58.0313C17.2779 57.4706 16.1121 55.8077 15.0955 56.43C14.4376 56.8327 14.06 58.814 13.7595 59.8484C13.5825 60.4574 12.4999 62.9548 14.2733 62.9548C15.6257 62.9548 15.1859 61.8816 15.8081 61.4281C16.3903 63.9141 20.3088 68.4161 22.589 69.9498C29.9054 74.8708 37.8671 75.3741 45.6317 71.0943C48.8507 69.3199 52.5538 65.3495 53.96 61.9745C54.5046 60.6672 54.8663 59.8179 55.2537 58.3761C55.5098 57.4228 56.3077 54.8635 54.6385 54.8635C52.4741 54.8635 54.377 59.3472 49.2325 65.2108C46.6399 68.1658 43.4649 70.2712 39.4783 71.2329C33.785 72.6063 26.7873 71.0292 22.8297 67.2678C22.4047 66.8639 22.1379 66.7444 21.7493 66.3578C20.6387 65.2532 19.1495 63.1099 18.4173 61.7335ZM26.8912 43.9033C27.5154 44.309 27.9518 45.2456 28.8539 45.2456C29.368 45.2456 30.886 44.2566 31.594 44.0018C33.9366 43.1588 34.0722 43.9985 34.0722 40.9709H35.914C35.914 44.8209 36.6704 42.8267 39.6892 44.5436C40.3282 44.9069 41.3833 46.2346 42.974 43.8716L44.3917 45.2094C41.7696 47.0433 43.4163 47.581 44.2244 49.8031C45.0719 52.1334 44.2278 52.2682 47.2715 52.2682V54.1002C44.1954 54.1002 45.0588 54.1143 44.2244 56.4126C43.496 58.4189 41.7133 59.363 44.3553 61.1228L43.0104 62.5329C40.9465 59.592 40.6166 61.8431 37.5331 62.5807C35.7017 63.0188 35.914 63.0371 35.914 65.3975H34.0722C34.0722 61.5963 33.2957 63.4576 30.3384 61.7835C29.1224 61.0952 28.3957 60.4417 27.0121 62.4968L25.5945 61.159C28.1183 59.4196 26.6526 58.7981 25.825 56.655C24.8018 54.0053 25.7975 54.1002 22.7147 54.1002V52.2682C26.5361 52.2682 24.6649 51.4958 26.3479 48.5542C27.0399 47.3447 27.6969 46.6217 25.6308 45.2456L26.8912 43.9033ZM31.77 41.5816L29.0074 42.6502C27.1814 41.4339 27.5774 40.0229 25.2855 42.3067C24.3142 43.2746 22.5509 44.625 23.0077 45.5466C23.1846 45.9034 24.2162 46.8508 24.5564 47.0776C24.3151 47.5313 24.1296 47.9049 23.9185 48.4276C23.7425 48.863 23.5355 49.5493 23.3286 49.9782C19.9909 49.9782 20.4125 49.7187 20.4125 55.0162C20.4125 56.5541 21.8411 56.2375 23.3286 56.2375C23.5425 56.6808 23.5802 57.1729 23.8377 57.7158C24.0789 58.224 24.3128 58.6802 24.5564 59.1382C22.7262 60.3572 22.5195 61.1947 23.6719 62.308C24.1275 62.7483 26.2595 65.0921 26.7052 65.0921C28.1151 65.0921 27.9958 64.2393 29.0074 63.5655C29.6118 63.8836 30.9802 64.5688 31.77 64.6341C31.77 68.1468 31.4575 67.5347 37.2953 67.5347C38.359 67.5347 38.2162 65.7506 38.2162 64.6341C39.1203 64.5593 40.3027 63.9213 40.9788 63.5655C41.9903 64.2393 41.8711 65.0921 43.281 65.0921C43.6847 65.0921 46.9645 61.8296 46.9645 61.4281C46.9645 60.3608 46.2612 59.6921 45.4297 59.1382C45.7874 58.4656 46.4288 57.2895 46.504 56.3902C50.0312 56.3902 49.5737 56.2892 49.5737 51.3522C49.5737 49.8401 48.1889 49.9782 46.6576 49.9782C46.2648 49.1639 46.0776 48.1927 45.4297 47.2302C46.761 45.2526 48.3553 45.9419 45.3913 42.9937C42.2052 39.8245 42.9147 41.3607 40.9788 42.6502C40.4925 42.5375 40.1944 42.3377 39.6647 42.1254C39.1599 41.9231 38.6355 41.7818 38.2162 41.5816C38.2162 38.1688 38.1442 38.6809 33.1513 38.6809C31.6311 38.6809 31.77 40.0583 31.77 41.5816ZM49.2667 37.9176L66.1604 37.9067C68.5812 37.9059 67.6865 40.3603 66.7634 40.3603H51.7224C51.2197 40.3603 51.224 39.9302 50.4575 39.1758C50.0184 38.7436 49.5953 38.4058 49.2667 37.9176ZM18.2638 40.3603H3.22277C2.26596 40.3603 1.50018 37.9461 3.67039 37.9048L20.7195 37.9176L19.5326 39.1798C18.7702 39.9659 18.6603 40.3603 18.2638 40.3603ZM23.3286 35.6276H15.5011C15.5011 33.0206 15.2013 30.4544 16.3659 28.0911C16.6116 27.5925 16.9005 27.1669 17.1882 26.7717C17.3675 26.5252 17.9266 25.7989 18.1536 25.5947L19.3342 24.6318C20.5117 23.7903 22.4614 22.9563 24.096 22.9563H33.6118C34.7488 22.9563 36.5269 23.608 37.2698 24.0504C39.3295 25.2767 40.827 26.8502 41.6151 29.1934C42.1201 30.6951 42.0532 31.4912 42.0532 33.4903C40.3497 33.3493 38.0997 31.7078 31.9137 32.5645C26.9599 33.2505 24.182 35.6276 23.3286 35.6276ZM45.8901 17.7657H54.1781C58.5352 17.7657 62.6195 21.7473 62.6195 26.1623V29.6737H44.0484C43.9214 28.1559 42.7729 26.2501 42.033 25.2664C41.1781 24.13 39.8067 22.8686 38.5231 22.193C40.1954 19.7089 42.5155 17.7657 45.8901 17.7657ZM21.9473 13.491C21.9473 9.73689 24.9948 6.6211 28.24 6.6211C30.3644 6.6211 32.1743 6.98944 33.732 8.63886C37.6384 12.7753 35.1147 20.0032 28.8349 20.1458C26.8889 20.1901 25.1298 19.2868 24.0538 18.2657C22.9983 17.2641 21.9473 15.4647 21.9473 13.491ZM50.3411 15.0177C43.7177 15.0177 41.7362 7.77027 45.464 4.05984C49.3713 0.170735 56.4803 2.92554 56.4803 8.60574C56.4803 10.4136 55.6074 12.1222 54.6826 13.0769C53.8249 13.9624 52.0203 15.0177 50.3411 15.0177ZM51.4154 44.4822C50.5701 44.501 50.5254 44.7657 50.0341 45.0929C50.0341 46.3838 50.0467 46.1231 50.7619 46.8116C51.1975 47.2309 51.5882 47.5731 51.9645 48.058C53.1928 49.6402 53.5963 49.9782 54.9454 49.9782C55.8263 48.6698 55.7156 48.1692 56.2734 46.2613C56.7159 44.7482 57.3864 43.4136 55.0989 43.4136C54.6454 44.0873 54.5648 43.944 54.3315 44.9402L53.1007 42.6517C57.2973 42.6502 61.4973 42.6273 65.6901 42.6513C67.5582 42.662 68.904 42.2814 69.7326 40.4131C70.5457 38.58 69.3559 36.6912 68.1521 36.0783C66.7175 35.3478 64.0663 35.6276 62.3124 35.6276L46.5152 35.6166C46.171 35.5678 44.7592 34.7715 44.3553 34.559V31.9636H61.8521C64.8637 31.964 64.9258 32.2851 64.9217 29.2157C64.9167 25.521 64.9039 22.7421 62.6424 19.8802C60.9704 17.7642 58.1689 15.8698 55.2524 15.6284C55.8159 14.7914 60.2278 11.8741 58.1518 5.7217C57.5919 4.06226 56.5366 2.76192 55.2109 1.77705C48.0346 -3.55355 38.9204 4.10892 41.8517 11.5541C43.0405 14.5734 44.445 15.0777 44.8158 15.6284C41.7389 15.6966 38.0673 18.3831 36.5279 21.277C35.6721 21.0787 35.1884 20.819 34.0722 20.819C34.4979 20.1867 39.3749 16.943 37.4161 10.6229C34.8417 2.31641 22.9164 2.41662 20.276 10.302C19.8432 11.5943 19.8027 11.7826 19.7974 13.4919C19.7933 14.8044 19.9284 15.652 20.3191 16.6373C21.4298 19.438 22.9791 20.0718 23.4821 20.819C21.748 20.819 19.8527 21.7072 18.7286 22.35C16.2176 23.786 14.1571 26.6891 13.4683 29.6363C13.0936 31.24 13.199 33.5847 13.199 35.6276C10.1275 35.6276 7.05605 35.6257 3.98475 35.6222C2.66988 35.6207 1.49253 35.974 0.760158 36.9947C0.0300535 38.0123 -0.30447 39.17 0.351436 40.6211C1.50646 43.1764 4.00845 42.6502 7.52023 42.6502C10.641 42.6502 13.7617 42.6502 16.8824 42.6502C15.691 44.89 14.9864 46.5743 14.3809 49.4789C13.936 51.6126 15.6413 52.0198 16.2961 50.922L17.2843 47.1719C17.7031 45.9137 18.1355 45.0189 18.7162 44.0163C20.545 40.859 22.5263 38.8722 25.8485 36.9128C31.3597 33.6622 38.9648 33.8444 44.518 37.1452C46.4934 38.3194 48.1484 39.7613 49.5949 41.5605C50.086 42.1714 51.2327 43.7025 51.4154 44.4822Z" fill="#BDE14A"/>
</svg>
