<svg width="63" height="71" viewBox="0 0 63 71" fill="none" xmlns="http://www.w3.org/2000/svg">
<path fill-rule="evenodd" clip-rule="evenodd" d="M42.2196 66.5625V60.5996C44.8993 60.659 45.6917 63.5117 48.4898 63.5117C51.2879 63.5117 52.0803 60.659 54.7601 60.5996V66.5625C54.7601 67.9884 53.3864 68.92 52.5306 68.92C51.2386 68.92 49.3061 67.1172 48.4898 67.1172C47.7502 67.1172 45.591 68.92 44.5884 68.92C43.332 68.92 42.2196 67.8338 42.2196 66.5625ZM25.2203 38.4121C25.2203 39.0709 25.2651 39.6602 26.1957 39.6602C27.2508 39.6602 32.6939 39.8952 33.2353 39.4552C33.944 38.8792 33.4944 37.5801 32.7446 37.5801H26.0563C25.7208 37.5801 25.2203 38.0782 25.2203 38.4121ZM25.2203 24.8223C25.2203 25.8919 25.6169 26.209 27.0317 26.209H31.7693C34.4386 26.209 33.792 23.9902 32.4658 23.9902H26.0563C25.7208 23.9902 25.2203 24.4884 25.2203 24.8223ZM26.335 8.32032C25.7387 8.32032 25.2203 7.89285 25.2203 7.34963C25.2203 6.40632 26.249 6.03974 26.8599 6.54134C27.5835 7.13553 27.2367 8.32032 26.335 8.32032ZM29.4004 7.48829C29.4004 3.43274 24.3563 3.21449 23.2801 6.11294C22.8069 7.3873 23.1794 8.72955 23.9942 9.54054C24.8165 10.3588 26.1231 10.7331 27.4386 10.2509C28.3738 9.90821 29.4004 8.7549 29.4004 7.48829ZM25.2203 30.2305C25.2203 30.9547 25.6989 31.3398 26.0563 31.3398H39.8509C41.4532 31.3398 41.0742 29.2598 40.1295 29.2598H26.1957C25.5452 29.2598 25.2203 29.5831 25.2203 30.2305ZM44.3097 48.9512C44.3097 43.7487 52.67 43.5313 52.67 49.0899C52.67 53.317 46.6669 54.9483 44.6833 50.798C44.487 50.3873 44.3097 49.5163 44.3097 48.9512ZM42.2196 48.5352C42.2196 50.5811 42.4755 51.9937 44.0237 53.5346C48.1321 57.6232 54.7601 54.2024 54.7601 49.6445C54.7601 47.6905 54.473 45.9092 52.8454 44.4778C50.2554 42.1998 46.9044 42.1705 44.2095 44.4141C43.3314 45.1453 42.2196 46.9725 42.2196 48.5352ZM14.6306 26.0703C14.6306 26.7081 16.9944 29.2598 17.8354 29.2598C18.7162 29.2598 19.3092 28.145 19.9254 27.7344C19.9254 30.713 18.4969 30.2305 15.3272 30.2305C13.2821 30.2305 13.6552 27.4816 13.6552 26.0703C13.6552 23.7196 15.9212 23.9902 17.5567 23.9902C18.6116 23.9902 19.154 24.2581 19.6467 24.8223L17.8689 26.6584C17.2563 26.2391 16.8696 25.572 16.3218 25.2088C15.5867 24.7213 14.6306 25.3242 14.6306 26.0703ZM11.5651 25.3769C11.5651 27.8626 11.1536 30.0196 12.8566 31.4412C14.5549 32.8588 19.4882 32.9874 21.142 31.0252C22.109 29.8778 22.1548 28.6022 22.1548 26.7637C22.1548 25.3015 21.3809 26.1782 23.3754 24.2343C24.9796 22.6709 23.7294 21.9102 23.1302 21.9102C22.0167 21.9102 21.9449 23.0565 21.0401 23.2969C20.8391 22.5475 19.2377 21.9102 18.2533 21.9102H15.3272C13.4662 21.9102 11.5651 23.5904 11.5651 25.3769ZM14.6306 39.6602C14.6306 40.3022 15.5938 41.1042 15.9891 41.4975C18.5814 44.0775 18.2546 42.4377 19.9254 41.3243C19.9254 42.0876 19.9169 42.5883 19.5964 43.0769C18.9116 44.121 17.2384 43.8203 15.6059 43.8203C13.2544 43.8203 13.6552 41.5684 13.6552 39.7988C13.6552 37.2207 15.747 37.5801 17.696 37.5801C18.7058 37.5801 19.1846 37.883 19.6467 38.4121L17.8689 40.2483C17.3046 39.8612 16.4003 38.5508 15.7453 38.5508C15.2596 38.5508 14.6306 39.1768 14.6306 39.6602ZM11.5651 38.9668C11.5651 41.3483 11.1546 43.6864 12.9322 45.0945C14.5729 46.394 19.4155 46.5495 21.0774 44.6894C22.1013 43.5433 22.1548 42.2398 22.1548 40.3535C22.1548 38.8767 21.3564 39.7922 23.4462 37.7559C23.8183 37.3933 24.1901 37.0357 24.1654 36.4918C24.1197 35.4852 22.8026 34.6815 21.3188 36.8868C20.8742 36.5904 20.6837 36.3248 20.1118 36.0079C18.6911 35.2205 17.1882 35.5 15.0486 35.5C13.3832 35.5 11.5651 37.3093 11.5651 38.9668ZM0 23.1582V58.6582C0 65.1744 5.94004 71 12.1225 71H33.3019H34.7398H40.4082C41.2002 71 41.7961 70.8165 42.3992 70.7519C43.0815 70.6788 43.5846 70.9351 44.2816 71H44.9007C45.3939 70.9539 45.9915 70.7904 46.772 70.3997C49.0478 69.2605 47.9318 69.2605 50.2077 70.3997C53.4092 72.0023 56.2797 70.1159 56.7925 67.6145C57.1692 65.7769 56.9895 62.3615 56.9895 60.1836C58.0506 60.0957 58.9259 59.2375 59.3629 58.3855C60.3072 56.5447 59.6984 54.6744 60.7069 53.3443C61.0621 52.876 61.3166 52.5495 61.6852 52.099C64.0571 49.199 62.8423 47.5286 61.0089 45.2283C59.1528 42.8997 60.885 38.8876 57.0719 37.914C55.0919 37.4085 54.1145 37.8036 52.5306 36.748C52.5306 32.403 52.5306 28.058 52.5306 23.7129C52.5306 19.3602 52.5107 16.8592 49.8649 13.3308C48.2334 11.1551 45.012 8.8691 41.6546 8.46662C41.341 8.42906 41.3571 8.46683 41.0347 8.39014C40.1393 8.17729 40.7658 8.26411 39.9309 6.99261C38.1627 4.29968 35.9716 4.16013 32.8839 4.16013C32.5305 3.49555 32.4122 3.2029 31.9306 2.61282C31.517 2.10591 31.1064 1.72889 30.5455 1.35649C29.3524 0.564209 28.0775 0.107231 26.7907 0H25.6128C24.3634 0.104114 23.1229 0.541662 21.9549 1.32641C21.2339 1.81082 19.8535 3.2773 19.6467 4.16013C17.3383 4.16013 16.1124 4.07493 14.6556 5.0171C13.6981 5.63632 12.0958 6.97276 11.9831 8.32032C9.19283 8.38219 5.47721 10.1533 3.65314 12.0947C1.53888 14.345 0 17.4153 0 20.6622V22.8637V23.1582ZM33.2529 68.9115L14.3519 68.92C9.06911 68.9205 4.93211 67.2259 2.84296 62.0691C1.92769 59.8098 2.09008 56.761 2.09008 53.666C2.09008 52.0412 2.23745 28.6824 2.05845 23.3522C2.28146 22.0541 1.60434 19.3025 3.57719 15.7632C4.02101 14.9668 4.40565 14.6101 4.9353 13.9253C6.13925 12.3686 9.28905 10.7276 11.5651 10.5391C11.5651 11.3959 11.6199 11.7576 11.8248 12.3607C12.0399 12.9941 12.264 13.3472 12.5404 13.8672C10.5779 13.9107 8.7368 14.9632 7.69447 15.978C6.64154 17.0031 5.57352 18.9092 5.57352 20.9394V58.2422C5.57352 62.1449 8.78352 65.4575 12.675 65.4579L39.5911 65.4437C40.7041 65.5604 39.5338 65.8387 40.3283 68.0451C40.79 69.3274 40.267 68.92 36.228 68.92C35.496 68.92 34.0999 68.7994 33.2529 68.9115ZM48.4898 36.748C49.458 36.748 51.0074 38.4737 52.2473 39.1101C53.0609 39.5276 53.5794 39.5582 54.6997 39.7202C57.4359 40.116 57.5332 40.0027 57.8507 42.6859C57.9541 43.5606 58.0787 44.4324 58.4253 45.1648C59.8054 48.0808 62.1301 47.9513 59.8375 50.9536C58.6536 52.504 58.2104 52.8493 57.8826 55.1096C57.7501 56.0238 57.7797 57.0202 57.3296 57.6101C56.2214 59.0619 54.1284 57.3319 50.6759 60.1405C46.7495 63.3345 47.7157 58.9905 42.0688 58.3922C37.6561 57.9246 40.1538 56.2591 38.4612 52.8303C37.7943 51.4795 36.0858 50.066 36.1515 48.9882C36.2625 47.1656 38.5525 47.1313 39.1131 42.8088C39.2242 41.952 39.2863 40.8445 39.7456 40.3874C40.4091 39.727 43.4112 39.7625 44.6397 39.1566C45.9986 38.4864 47.4984 36.748 48.4898 36.748ZM36.9247 42.7109H26.753C24.8115 42.7109 24.893 44.4737 25.8658 44.8419C26.3922 45.0412 35.3145 44.9297 36.0887 44.9297C35.0623 46.8601 33.5048 47.3557 34.138 50.0606L13.7908 50.0569C12.7187 50.0469 11.9831 50.1313 11.9831 51.1699C11.9831 52.2313 12.8422 52.2904 13.9304 52.2827L35.5313 52.2793C35.846 52.8711 36.3918 53.4072 36.6271 53.9623C36.9006 54.6078 36.8929 55.5699 37.0641 56.3008L14.2116 56.2999C12.5263 56.2901 11.9831 56.3356 11.9831 57.6875C11.9831 58.7457 13.936 58.5207 14.3517 58.5197L37.7607 58.5196C37.9736 59.3128 39.0699 60.1074 39.9901 60.1836V63.2344H12.1225C10.8961 63.2344 9.81013 62.3937 9.15859 61.7466C8.47166 61.0644 7.80294 59.9717 7.80294 58.6582V20.6622C7.80294 18.2739 10.2627 16.0859 12.2618 16.0859C16.4487 16.0859 14.02 16.0568 16.3836 16.5601C18.48 17.0065 31.2011 16.7793 34.2773 16.7793C34.9469 16.7793 35.424 16.7194 36.0287 16.5809C38.2151 16.0802 35.9291 16.0859 39.9901 16.0859C41.7185 16.0859 43.0816 17.0751 43.9502 18.3851C44.9809 19.9394 44.7277 21.5635 44.7277 23.9902C44.7277 28.1966 44.7277 32.403 44.7277 36.6094C44.2358 36.7401 44.2414 36.9615 43.661 37.2119C41.9513 37.9497 38.6786 37.2047 37.5369 39.8534C37.2567 40.5034 36.9433 41.8804 36.9247 42.7109ZM40.9655 10.5391C43.1173 10.7173 45.5995 12.0128 46.7842 13.2073C51.0608 17.5192 50.3013 20.1757 50.3013 26.625C50.3013 29.4447 50.3013 32.2643 50.3013 35.084C48.6091 34.6917 49.2883 34.4048 46.9571 34.9454C46.9571 32.1789 47.1031 22.8895 46.9502 20.9463C46.8305 19.425 46.4528 18.207 45.6782 17.0814C44.3941 15.2152 42.3174 13.9188 39.9901 13.8672C40.4743 12.9567 40.9655 11.9283 40.9655 10.5391ZM26.1957 2.08009C28.158 2.08009 29.9233 3.19802 30.8769 4.9095C31.2769 5.62744 31.1218 6.19783 32.1763 6.25108C33.9921 6.34283 35.5122 6.11346 36.7328 6.8473C40.3851 9.0433 38.6683 14.5606 34.9739 14.5606H17.696C15.6667 14.5606 14.1036 13.0004 13.7878 11.2372C13.3924 9.02916 14.5969 7.35379 16.1601 6.6531C16.9796 6.28584 18.1548 6.23025 19.3689 6.24106C22.6182 6.27005 20.3533 5.03554 23.3474 2.98969C24.0589 2.50356 25.4075 2.08009 26.1957 2.08009Z" fill="#BDE14A"/>
</svg>
