<svg width="1249" height="916" viewBox="0 0 1249 916" fill="none" xmlns="http://www.w3.org/2000/svg">
<g clip-path="url(#clip0_1393_610)">
<g opacity="0.05">
<path fill-rule="evenodd" clip-rule="evenodd" d="M897.155 1021.77L743.39 336.133L224.133 799.444L897.155 1021.77ZM744.663 332.136L900.043 1024.94L898.272 1024.35L219.987 800.284L221.341 799.072L744.663 332.136Z" fill="#5A5D5F"/>
<path fill-rule="evenodd" clip-rule="evenodd" d="M768.358 345.58L209.474 761.443L861.558 1040.75L768.358 345.58ZM205.259 761.916L769.977 341.721L864.148 1044.14L205.259 761.916Z" fill="#5A5D5F"/>
<path fill-rule="evenodd" clip-rule="evenodd" d="M792.439 357.14L198.182 722.383L824.342 1056.53L792.439 357.14ZM193.93 722.492L195.485 721.541L794.392 353.437L826.645 1060.14L193.93 722.492Z" fill="#5A5D5F"/>
<path fill-rule="evenodd" clip-rule="evenodd" d="M815.454 370.721L190.341 682.57L785.822 1069.01L815.454 370.721ZM186.096 682.308L817.729 367.203L817.652 369.023L787.779 1072.78L786.235 1071.78L186.096 682.308Z" fill="#5A5D5F"/>
<path fill-rule="evenodd" clip-rule="evenodd" d="M837.229 386.21L186.024 642.283L746.302 1078.1L837.229 386.21ZM181.81 641.66L839.808 382.912L747.921 1082.01L181.81 641.66Z" fill="#5A5D5F"/>
<path fill-rule="evenodd" clip-rule="evenodd" d="M857.594 403.494L185.245 601.854L706.026 1083.69L857.594 403.494ZM181.098 600.868L182.85 600.347L860.459 400.437L707.317 1087.74L181.098 600.868Z" fill="#5A5D5F"/>
<path fill-rule="evenodd" clip-rule="evenodd" d="M876.391 422.445L188.03 561.574L665.391 1085.8L876.391 422.445ZM183.974 560.232L879.522 419.653L666.294 1089.92L665.081 1088.57L183.974 560.232Z" fill="#5A5D5F"/>
<path fill-rule="evenodd" clip-rule="evenodd" d="M893.502 442.931L194.354 521.77L624.629 1084.38L893.502 442.931ZM190.426 520.089L896.868 440.424L625.197 1088.57L190.426 520.089Z" fill="#5A5D5F"/>
<path fill-rule="evenodd" clip-rule="evenodd" d="M908.769 464.774L204.149 482.715L584.082 1079.43L908.769 464.774ZM200.376 480.706L912.354 462.576L584.289 1083.66L583.274 1082.08L200.376 480.706Z" fill="#5A5D5F"/>
<path fill-rule="evenodd" clip-rule="evenodd" d="M922.09 487.813L217.362 444.734L544.048 1071L922.09 487.813ZM213.775 442.407L215.619 442.519L925.844 485.928L543.875 1075.21L213.775 442.407Z" fill="#5A5D5F"/>
<path fill-rule="evenodd" clip-rule="evenodd" d="M933.331 511.874L233.888 408.108L504.874 1059.19L933.331 511.874ZM230.512 405.485L937.252 510.324L504.311 1063.35L230.512 405.485Z" fill="#5A5D5F"/>
<path fill-rule="evenodd" clip-rule="evenodd" d="M942.469 536.786L253.598 373.106L466.78 1044.02L942.469 536.786ZM250.461 370.201L946.496 535.577L465.867 1048.12L250.461 370.201Z" fill="#5A5D5F"/>
<path fill-rule="evenodd" clip-rule="evenodd" d="M949.387 562.352L276.343 340.004L430.116 1025.65L949.387 562.352ZM273.467 336.843L275.226 337.425L953.513 561.499L428.847 1029.65L428.445 1027.86L273.467 336.843Z" fill="#5A5D5F"/>
<path fill-rule="evenodd" clip-rule="evenodd" d="M954.039 588.36L301.948 309.05L395.144 1004.22L954.039 588.36ZM299.353 305.661L958.25 587.888L393.521 1008.08L299.353 305.661Z" fill="#5A5D5F"/>
<path fill-rule="evenodd" clip-rule="evenodd" d="M956.395 614.638L330.218 280.48L362.123 979.87L956.395 614.638ZM327.928 276.886L960.615 614.512L360.164 983.57L327.928 276.886Z" fill="#5A5D5F"/>
<path fill-rule="evenodd" clip-rule="evenodd" d="M956.42 640.953L360.94 254.511L331.311 952.803L956.42 640.953ZM358.973 250.735L360.523 251.745L960.669 641.216L329.034 956.316L358.973 250.735Z" fill="#5A5D5F"/>
<path fill-rule="evenodd" clip-rule="evenodd" d="M954.162 667.156L393.882 231.339L302.947 923.225L954.162 667.156ZM392.25 227.421L958.362 667.774L300.364 926.521L392.25 227.421Z" fill="#5A5D5F"/>
<path fill-rule="evenodd" clip-rule="evenodd" d="M949.596 693.005L428.786 211.151L277.237 891.355L949.596 693.005ZM427.504 207.108L953.743 693.992L274.372 894.412L427.504 207.108Z" fill="#5A5D5F"/>
<path fill-rule="evenodd" clip-rule="evenodd" d="M942.751 718.314L465.397 194.087L254.387 857.441L942.751 718.314ZM464.474 189.956L465.72 191.326L946.809 719.652L251.261 860.232L464.474 189.956Z" fill="#5A5D5F"/>
<path fill-rule="evenodd" clip-rule="evenodd" d="M933.697 742.888L503.428 180.284L234.56 821.737L933.697 742.888ZM502.866 176.095L937.623 744.566L231.197 824.239L502.866 176.095Z" fill="#5A5D5F"/>
<path fill-rule="evenodd" clip-rule="evenodd" d="M922.506 766.547L542.588 169.841L217.91 784.51L922.506 766.547ZM542.394 165.629L543.384 167.182L926.3 768.572L214.333 786.709L542.394 165.629Z" fill="#5A5D5F"/>
<path fill-rule="evenodd" clip-rule="evenodd" d="M909.277 789.115L582.593 162.847L204.58 746.053L909.277 789.115ZM582.773 158.64L912.862 791.445L911.053 791.351L200.811 747.93L201.801 746.414L582.773 158.64Z" fill="#5A5D5F"/>
<path fill-rule="evenodd" clip-rule="evenodd" d="M894.09 810.426L623.126 159.348L194.652 706.66L894.09 810.426ZM623.672 155.185L897.479 813.057L190.728 708.202L623.672 155.185Z" fill="#5A5D5F"/>
<path fill-rule="evenodd" clip-rule="evenodd" d="M877.068 830.3L663.874 159.378L188.196 666.616L877.068 830.3ZM664.787 155.283L665.345 157.034L880.184 833.192L184.151 667.813L664.787 155.283Z" fill="#5A5D5F"/>
<path fill-rule="evenodd" clip-rule="evenodd" d="M858.328 848.586L704.542 162.932L185.288 626.245L858.328 848.586ZM705.816 158.934L861.18 851.725L859.444 851.16L181.141 627.079L182.494 625.876L705.816 158.934Z" fill="#5A5D5F"/>
<path fill-rule="evenodd" clip-rule="evenodd" d="M744.807 169.971L185.93 585.838L837.995 865.136L744.807 169.971ZM181.714 586.311L746.429 166.113L840.588 868.527L181.714 586.311Z" fill="#5A5D5F"/>
</g>
</g>
<defs>
<clipPath id="clip0_1393_610">
<rect width="1249" height="916" fill="white"/>
</clipPath>
</defs>
</svg>
