<svg width="900" height="900" viewBox="0 0 900 900" fill="none" xmlns="http://www.w3.org/2000/svg">
<g opacity="0.05">
<path fill-rule="evenodd" clip-rule="evenodd" d="M895.86 630.615L389.411 143.697L215.529 820.192L895.86 630.615ZM388.255 139.648L900 631.647L898.207 632.142L212.56 823.206L213.011 821.439L388.255 139.648Z" fill="#5A5D5F"/>
<path fill-rule="evenodd" clip-rule="evenodd" d="M415.313 137.665L182.377 796.627L876.871 666.314L415.313 137.665ZM179.148 799.373L414.519 133.539L880.89 667.701L179.148 799.373Z" fill="#5A5D5F"/>
<path fill-rule="evenodd" clip-rule="evenodd" d="M441.649 133.893L151.428 770.3L854.774 700.247L441.649 133.893ZM147.967 772.763L148.728 771.101L441.218 129.711L858.673 701.971L147.967 772.763Z" fill="#5A5D5F"/>
<path fill-rule="evenodd" clip-rule="evenodd" d="M468.218 132.403L122.92 741.42L829.771 732.146L468.218 132.403ZM119.26 743.569L468.157 128.196L469.1 129.759L833.473 734.2L831.641 734.225L119.26 743.569Z" fill="#5A5D5F"/>
<path fill-rule="evenodd" clip-rule="evenodd" d="M494.816 133.198L97.0706 710.179L802.064 761.771L494.816 133.198ZM93.2363 712.008L495.129 129.006L805.567 764.135L93.2363 712.008Z" fill="#5A5D5F"/>
<path fill-rule="evenodd" clip-rule="evenodd" d="M521.24 136.278L74.0714 676.846L771.802 788.903L521.24 136.278ZM70.0913 678.336L71.2545 676.923L521.922 132.128L775.106 791.56L70.0913 678.336Z" fill="#5A5D5F"/>
<path fill-rule="evenodd" clip-rule="evenodd" d="M547.285 141.625L54.1066 641.651L739.313 813.324L547.285 141.625ZM50.0054 642.792L548.335 137.548L742.337 816.256L740.587 815.806L50.0054 642.792Z" fill="#5A5D5F"/>
<path fill-rule="evenodd" clip-rule="evenodd" d="M572.784 149.195L37.3362 604.881L704.766 834.86L572.784 149.195ZM33.1533 605.667L574.185 145.224L707.555 838.045L33.1533 605.667Z" fill="#5A5D5F"/>
<path fill-rule="evenodd" clip-rule="evenodd" d="M597.506 158.926L23.8549 566.8L668.45 853.337L597.506 158.926ZM19.6187 567.225L599.26 155.091L670.958 856.751L669.247 856.003L19.6187 567.225Z" fill="#5A5D5F"/>
<path fill-rule="evenodd" clip-rule="evenodd" d="M621.277 170.74L13.7971 527.71L630.631 868.618L621.277 170.74ZM9.53955 527.766L11.1295 526.832L623.344 167.074L632.819 872.235L9.53955 527.766Z" fill="#5A5D5F"/>
<path fill-rule="evenodd" clip-rule="evenodd" d="M643.89 184.568L7.23353 487.905L591.658 880.598L643.89 184.568ZM2.98682 487.596L646.28 181.088L593.49 884.384L2.98682 487.596Z" fill="#5A5D5F"/>
<path fill-rule="evenodd" clip-rule="evenodd" d="M665.232 200.28L4.20416 447.68L551.72 889.169L665.232 200.28ZM0 447.003L667.899 197.025L553.228 893.098L0 447.003Z" fill="#5A5D5F"/>
<path fill-rule="evenodd" clip-rule="evenodd" d="M685.098 217.775L4.73935 407.351L511.199 894.271L685.098 217.775ZM0.609863 406.315L2.38826 405.819L688.043 214.763L512.359 898.317L511.036 897.045L0.609863 406.315Z" fill="#5A5D5F"/>
<path fill-rule="evenodd" clip-rule="evenodd" d="M703.331 236.904L8.83029 367.221L470.382 895.867L703.331 236.904ZM4.80762 365.837L706.557 234.162L471.175 900L4.80762 365.837Z" fill="#5A5D5F"/>
<path fill-rule="evenodd" clip-rule="evenodd" d="M719.811 257.538L16.4467 327.596L429.573 893.945L719.811 257.538ZM12.563 325.871L723.236 255.08L429.996 898.128L12.563 325.871Z" fill="#5A5D5F"/>
<path fill-rule="evenodd" clip-rule="evenodd" d="M734.383 279.503L27.5329 288.776L389.089 888.519L734.383 279.503ZM23.8159 286.719L25.6586 286.698L738.046 277.353L389.146 892.722L23.8159 286.719Z" fill="#5A5D5F"/>
<path fill-rule="evenodd" clip-rule="evenodd" d="M747.001 302.647L42.0036 251.054L349.243 879.63L747.001 302.647ZM38.4858 248.691L750.821 300.821L348.927 883.823L38.4858 248.691Z" fill="#5A5D5F"/>
<path fill-rule="evenodd" clip-rule="evenodd" d="M757.511 326.783L59.7488 214.731L310.329 867.347L757.511 326.783ZM56.4517 212.069L761.491 325.294L309.646 871.498L56.4517 212.069Z" fill="#5A5D5F"/>
<path fill-rule="evenodd" clip-rule="evenodd" d="M765.835 351.738L80.6353 180.065L272.653 851.764L765.835 351.738ZM77.5874 177.129L79.3762 177.578L769.936 350.592L271.607 855.838L77.5874 177.129Z" fill="#5A5D5F"/>
<path fill-rule="evenodd" clip-rule="evenodd" d="M771.924 377.31L104.502 147.331L236.491 832.998L771.924 377.31ZM101.72 144.145L776.104 376.523L235.089 836.963L101.72 144.145Z" fill="#5A5D5F"/>
<path fill-rule="evenodd" clip-rule="evenodd" d="M775.737 403.311L131.16 116.774L202.118 811.189L775.737 403.311ZM128.67 113.364L130.348 114.108L779.998 402.886L200.371 815.021L128.67 113.364Z" fill="#5A5D5F"/>
<path fill-rule="evenodd" clip-rule="evenodd" d="M777.259 429.536L160.425 88.6251L169.815 786.502L777.259 429.536ZM158.248 85.0114L781.517 429.483L779.966 430.414L167.731 790.172L167.713 788.353L158.248 85.0114Z" fill="#5A5D5F"/>
<path fill-rule="evenodd" clip-rule="evenodd" d="M776.464 455.803L192.061 63.1021L139.812 759.136L776.464 455.803ZM190.211 59.3204L780.725 456.112L137.414 762.613L190.211 59.3204Z" fill="#5A5D5F"/>
<path fill-rule="evenodd" clip-rule="evenodd" d="M773.354 481.894L225.824 40.4061L112.323 729.291L773.354 481.894ZM224.316 36.4769L225.746 37.6283L777.534 482.572L109.634 732.546L224.316 36.4769Z" fill="#5A5D5F"/>
<path fill-rule="evenodd" clip-rule="evenodd" d="M767.945 507.616L261.471 20.6983L87.5934 697.194L767.945 507.616ZM260.315 16.6492L772.042 508.648L770.293 509.143L84.6201 700.203L85.0751 698.444L260.315 16.6492Z" fill="#5A5D5F"/>
<path fill-rule="evenodd" clip-rule="evenodd" d="M298.711 4.12632L65.7831 663.088L760.255 532.776L298.711 4.12632ZM62.5537 665.834L297.921 0L764.278 534.163L62.5537 665.834Z" fill="#5A5D5F"/>
</g>
</svg>
